<svg xmlns="http://www.w3.org/2000/svg" viewBox="0 0 750 500"><g id="freepik--background-simple--inject-400"><g><path d="M235.748,118.891c-42.594,3.362-83.667,10.519-120.095,21.745-42.934,13.231-86.802,33.844-73.846,60.805,23.921,49.774,138.673,50.68,115.761,84.148-25.952,37.909-8.548,82.376,107.906,94.741,221.188,23.487,488.572-113.939,413.473-189.452-46.753-47.012-217.037-89.835-443.2-71.986Z" style="fill:#407BFF;"></path><path d="M235.748,118.891c-42.594,3.362-83.667,10.519-120.095,21.745-42.934,13.231-86.802,33.844-73.846,60.805,23.921,49.774,138.673,50.68,115.761,84.148-25.952,37.909-8.548,82.376,107.906,94.741,221.188,23.487,488.572-113.939,413.473-189.452-46.753-47.012-217.037-89.835-443.2-71.986Z" style="fill:#fff; opacity:.9;"></path></g></g><g id="freepik--Shadow--inject-400"><path d="M638.23,450.825c0,6.013-120.538,10.887-269.23,10.887s-269.23-4.874-269.23-10.887,120.538-10.888,269.23-10.888,269.23,4.874,269.23,10.888Z" style="fill:#f5f5f5;"></path></g><g id="freepik--Light_Bulb--inject-400"><g><g><g><g><path d="M589.811,62.672c-16.156-.19-29.408,12.754-29.598,28.91-.103,8.767,3.732,17.119,10.448,22.755,1.236,1.019,3.123,2.253,3.081,4.808-.001,.078,.13,6.393,.13,6.393h30.772s.131-6.562,.131-6.636c0-2.25,1.742-3.22,3.024-4.234,6.807-5.457,10.814-13.675,10.922-22.398,.19-16.157-12.754-29.408-28.91-29.598Z" style="fill:#407BFF;"></path><path d="M589.811,62.672c-16.156-.19-29.408,12.754-29.598,28.91-.103,8.767,3.732,17.119,10.448,22.755,1.236,1.019,3.123,2.253,3.081,4.808-.001,.078,.13,6.393,.13,6.393h30.772s.131-6.562,.131-6.636c0-2.25,1.742-3.22,3.024-4.234,6.807-5.457,10.814-13.675,10.922-22.398,.19-16.157-12.754-29.408-28.91-29.598Z" style="fill:#fff; opacity:.4;"></path></g><path d="M566.96,103.173c-2.589-4.439-3.602-9.684-2.852-14.768,.751-5.084,3.235-9.812,6.996-13.314l.34,.366c-3.678,3.425-6.107,8.049-6.842,13.021-.733,4.973,.258,10.102,2.789,14.443l-.432,.252Z" style="fill:#fff;"></path><path d="M597.941,119.299c-1.487-3.918-2.728-7.951-3.71-12.063-1.504,1.305-3.167,1.973-4.742,1.892-1.281-.063-2.562-.592-3.879-1.607-.203,3.987-.869,7.945-1.991,11.765l-.959-.282c1.173-3.992,1.836-8.137,1.984-12.308-.211-.198-.424-.409-.638-.632-3.28-3.416-4.813-7.649-4.103-11.323,.272-1.403,1.075-2.808,2.416-2.771,1.177,.029,2.043,1.18,2.438,3.239,.699,3.645,.998,7.359,.899,11.058,1.356,1.19,2.634,1.801,3.88,1.863,1.848,.086,3.46-1.073,4.433-2.012-.714-3.144-1.277-6.332-1.688-9.55-.149-1.168-.262-2.309-.006-3.423,.314-1.37,1.198-2.4,2.252-2.625,1.837-.389,3.304,1.547,3.808,3.664,.997,4.191-.26,8.97-3.203,12.175-.021,.023-.043,.047-.064,.07,.993,4.271,2.267,8.456,3.809,12.517l-.936,.355Zm-15.663-26.33c-.664,0-1.202,.983-1.392,1.962-.646,3.336,.77,7.213,3.788,10.385,.028-3.321-.271-6.649-.898-9.92-.108-.563-.534-2.404-1.481-2.427h-.017Zm12.704-1.5c-.082,0-.163,.009-.245,.026-.768,.165-1.3,1.059-1.486,1.872-.219,.954-.114,1.998,.023,3.072,.378,2.957,.886,5.888,1.521,8.782,2.4-2.922,3.431-7.185,2.568-10.808-.36-1.511-1.324-2.944-2.381-2.944Z" style="fill:#263238;"></path></g><rect x="570.511" y="123.681" width="37.655" height="3.714" rx="1.604" ry="1.604" style="fill:#263238;"></rect><rect x="570.511" y="123.681" width="37.655" height="3.714" rx="1.604" ry="1.604" style="fill:#fff; opacity:.3;"></rect><rect x="571.121" y="127.061" width="36.435" height="3.594" rx="1.604" ry="1.604" style="fill:#263238;"></rect><rect x="571.121" y="127.061" width="36.435" height="3.594" rx="1.604" ry="1.604" style="fill:#fff; opacity:.3;"></rect><path d="M577.783,135.779c2.309,4.222,7.165,8.67,11.968,8.387,4.803-.283,9.309-4.365,11.106-8.829l-23.074,.442Z" style="fill:#263238;"></path><rect x="573.346" y="133.54" width="31.986" height="3.594" rx="1.604" ry="1.604" style="fill:#263238;"></rect><rect x="573.346" y="133.54" width="31.986" height="3.594" rx="1.604" ry="1.604" style="fill:#fff; opacity:.3;"></rect><rect x="571.613" y="130.244" width="35.451" height="3.594" rx="1.604" ry="1.604" style="fill:#263238;"></rect><rect x="571.613" y="130.244" width="35.451" height="3.594" rx="1.604" ry="1.604" style="fill:#fff; opacity:.3;"></rect></g><path d="M573.216,52.081c2.224,2.224,4.447,4.447,6.671,6.671,.342,.342,.872-.188,.53-.53-2.224-2.224-4.447-4.447-6.671-6.671-.342-.342-.872,.188-.53,.53h0Z" style="fill:#263238;"></path><path d="M590.651,56.111v-12.621c0-.483-.75-.483-.75,0v12.621c0,.483,.75,.483,.75,0h0Z" style="fill:#263238;"></path><path d="M599.896,59.292c2.404-2.404,4.808-4.808,7.212-7.212,.342-.342-.188-.872-.53-.53-2.404,2.404-4.808,4.808-7.212,7.212-.342,.342,.188,.872,.53,.53h0Z" style="fill:#263238;"></path></g></g><g id="freepik--Device--inject-400"><g><rect x="143.519" y="85.373" width="430.366" height="299.745" style="fill:#263238;"></rect><rect x="152.858" y="93.019" width="413.881" height="243.571" style="fill:#fff; opacity:.4;"></rect><rect x="152.858" y="93.019" width="413.881" height="13.933" style="fill:#fff; opacity:.4;"></rect><path d="M161.919,99.671c0,1.417-1.149,2.565-2.565,2.565s-2.565-1.148-2.565-2.565,1.149-2.565,2.565-2.565,2.565,1.149,2.565,2.565Z" style="fill:#fff;"></path><path d="M169.039,99.671c0,1.417-1.149,2.565-2.565,2.565s-2.565-1.148-2.565-2.565,1.149-2.565,2.565-2.565,2.565,1.149,2.565,2.565Z" style="fill:#fff;"></path><path d="M176.437,99.671c0,1.417-1.148,2.565-2.565,2.565s-2.565-1.148-2.565-2.565,1.148-2.565,2.565-2.565,2.565,1.149,2.565,2.565Z" style="fill:#fff;"></path><rect x="143.519" y="336.253" width="430.366" height="48.865" style="fill:#fff; opacity:.8;"></rect><g><polygon points="450.462 441.61 275.758 441.61 287.409 385.117 435.785 385.117 450.462 441.61" style="fill:#263238;"></polygon><polygon points="450.462 441.61 275.758 441.61 287.409 385.117 435.785 385.117 450.462 441.61" style="fill:#fff; opacity:.8;"></polygon><polygon points="438.74 396.492 284.973 396.492 287.409 385.117 435.785 385.117 438.74 396.492" style="opacity:.2;"></polygon></g></g></g><g id="freepik--Plant--inject-400"><g><g><path d="M117.335,412.24c-.014-.438-1.488-43.957-8.567-50.841-6.885-6.693-14.787-.249-15.119,.028l-.71-.851c.09-.076,9.007-7.355,16.601,.028,7.397,7.193,8.844,49.79,8.902,51.6l-1.107,.035Z" style="fill:#263238;"></path><path d="M117.942,420.792c-.051-.52-4.838-52.245,14.052-73.924l.835,.727c-18.577,21.32-13.834,72.574-13.785,73.088l-1.102,.108Z" style="fill:#263238;"></path><path d="M117.244,415.321l-1.106-.074c.039-.586,3.697-58.804-10.159-71.548l.75-.816c14.244,13.102,10.674,70.02,10.515,72.437Z" style="fill:#263238;"></path><path d="M119.047,415.289l-1.108-.009c.014-1.603,.457-39.323,11.172-45.463,2.382-1.367,4.714-1.594,6.933-.676,6.479,2.68,9.689,14.21,9.823,14.7l-1.069,.292c-.032-.115-3.202-11.497-9.179-13.968-1.884-.778-3.888-.572-5.957,.613-10.167,5.826-10.611,44.125-10.614,44.511Z" style="fill:#263238;"></path><path d="M114.875,415.316l-1.105-.063c.017-.298,1.616-29.808-6.348-40.205-1.93-2.519-4.025-3.72-6.238-3.565-5.218,.364-9.594,8.001-9.637,8.078l-.965-.545c.19-.336,4.711-8.23,10.523-8.637,2.601-.185,5.025,1.162,7.196,3.997,8.214,10.723,6.645,39.713,6.574,40.941Z" style="fill:#263238;"></path><path d="M116.621,419.33c-.217-2.863-5.206-70.244,3.573-82.117l.89,.658c-8.536,11.545-3.411,80.678-3.358,81.375l-1.105,.085Z" style="fill:#263238;"></path></g><path d="M140.021,372.861s-5.603,2.07-3.701,6.525c5.359,12.552,18.133,13.89,18.133,13.89,0,0,5.994-9.489,1.081-16.859-6.774-10.16-15.371-6.837-15.513-3.557Z" style="fill:#407BFF;"></path><path d="M115.536,367.244s5.608-.235,5.927,4.599c.319,4.833-12.15,18.205-12.15,18.205,0,0-8.897-3.217-6.986-15.278,1.911-12.061,11.815-10.498,13.209-7.525Z" style="fill:#407BFF;"></path><path d="M118.255,339.077s-2.355-.29-3.241-2.409c-2.642-6.323,6.438-13.14,18.578-9.538,0,0,.321,10.683-6.212,14.897-6.533,4.214-9.125-2.949-9.125-2.949Z" style="fill:#407BFF;"></path><path d="M97.45,372.208s1.954-2.68-.999-2.942c-2.953-.263-15.736,5.466-12.375,18.578,0,0,16.442-5.363,17.012-10.853,.57-5.49-3.639-4.783-3.639-4.783Z" style="fill:#407BFF;"></path><path d="M132.506,343.768s.739-2.433,3.523-3.45c2.785-1.017,13.13-.379,13.273,13.157,0,0-15.915,2.645-17.885-2.511-1.97-5.156,1.089-7.196,1.089-7.196Z" style="fill:#407BFF;"></path><path d="M123.916,355.016s1.07-1.855,3.115-.862c2.045,.992,8.073,7.195,2.325,14.683,0,0-10.681-6.422-9.809-10.93,.805-4.155,4.369-2.891,4.369-2.891Z" style="fill:#407BFF;"></path><path d="M97.746,358.281s1.542-2.021-.717-2.272c-2.259-.25-12.383,2.452-10.026,12.559,0,0,12.334-.927,12.863-5.125,.529-4.199-2.121-5.161-2.121-5.161Z" style="fill:#407BFF;"></path><path d="M108.211,385.842c-.123,0-.229-.09-.247-.215-.885-6.296,2.091-13.758,7.404-18.568,.102-.092,.26-.085,.354,.018,.092,.103,.084,.261-.018,.354-5.196,4.704-8.107,11.988-7.245,18.127,.019,.137-.076,.264-.213,.283-.012,0-.023,.002-.035,.002Z" style="opacity:.3;"></path><path d="M128.942,364.999c-.117,0-.221-.082-.245-.201-.691-3.465-2.452-6.744-4.958-9.233-.098-.098-.099-.256,0-.354,.097-.099,.255-.099,.354-.002,2.576,2.56,4.386,5.93,5.096,9.491,.027,.136-.061,.267-.196,.294-.017,.003-.033,.005-.049,.005Z" style="opacity:.3;"></path><path d="M152.33,385.152c-.092,0-.182-.052-.225-.141-2.458-5.047-7.242-9.727-12.187-11.922-.126-.056-.183-.204-.127-.33,.057-.126,.204-.182,.33-.127,5.046,2.24,9.926,7.013,12.433,12.16,.061,.124,.009,.273-.115,.334-.035,.018-.072,.025-.109,.025Z" style="opacity:.3;"></path><path d="M146.331,350.167c-.083,0-.164-.041-.211-.116-1.436-2.278-3.613-4.061-6.128-5.021-2.669-1.019-4.91-1.739-7.416-1.021-.134,.039-.271-.039-.309-.171-.038-.133,.039-.271,.171-.31,2.654-.761,4.974-.017,7.731,1.035,2.617,.998,4.88,2.852,6.374,5.22,.074,.117,.039,.271-.078,.346-.042,.025-.087,.038-.133,.038Z" style="opacity:.3;"></path><path d="M110.184,346.049s3.734,.446,3.95-1.841c.217-2.287-12.344-11.187-22.65-3.829,0,0,3.173,10.206,10.722,12.064,7.549,1.858,7.978-6.394,7.978-6.394Z" style="fill:#407BFF;"></path><path d="M110.068,346.485c-.076,0-.151-.035-.201-.101-3.758-5.052-13.286-6.905-16.563-5.718-.129,.044-.273-.021-.32-.15-.047-.13,.02-.273,.15-.32,3.349-1.212,13.11,.48,17.134,5.89,.083,.111,.059,.268-.051,.35-.045,.034-.097,.05-.149,.05Z" style="opacity:.3;"></path><path d="M89.454,364.878c-.044,0-.089-.012-.13-.036-.118-.072-.155-.226-.083-.344,2.124-3.485,6.257-5.424,8.532-6.269,.129-.049,.273,.019,.321,.147,.048,.129-.018,.273-.147,.321-2.214,.822-6.233,2.704-8.279,6.06-.047,.077-.129,.12-.213,.12Z" style="opacity:.3;"></path><path d="M85.833,383.117c-.039,0-.079-.009-.116-.028-.122-.063-.17-.215-.106-.337,2.514-4.82,6.824-8.805,11.826-10.931,.126-.05,.273,.005,.328,.133,.054,.127-.005,.273-.132,.328-4.897,2.081-9.117,5.981-11.578,10.7-.044,.086-.132,.135-.222,.135Z" style="opacity:.3;"></path><path d="M118.75,339.072c-.036,0-.072-.008-.106-.023-.125-.059-.179-.208-.121-.333,2.022-4.315,5.94-7.752,10.483-9.192,.134-.041,.272,.031,.314,.163,.042,.131-.031,.271-.163,.313-4.412,1.399-8.218,4.736-10.181,8.929-.042,.091-.133,.144-.227,.144Z" style="opacity:.3;"></path><g><polygon points="133.75 443.566 99.036 443.566 95.291 407.646 137.495 407.646 133.75 443.566" style="fill:#263238;"></polygon><rect x="89.454" y="402.725" width="53.88" height="9.842" style="fill:#263238;"></rect><polygon points="95.804 412.567 96.476 419.015 136.31 419.015 136.983 412.559 95.804 412.567" style="opacity:.3;"></polygon></g></g></g><g id="freepik--Artboard--inject-400"><rect x="211.808" y="130.92" width="327.942" height="179.858" style="fill:#fff;"></rect><g><path d="M253.502,228.314h-3.427v9.424h-12.636v-37.48h18.044c10.441,0,17.08,5.461,17.08,14.135,0,5.408-2.57,9.477-7.068,11.779l7.871,11.565h-13.493l-6.372-9.424Zm1.178-18.312h-4.605v8.781h4.605c3.48,0,5.14-1.66,5.14-4.391s-1.66-4.391-5.14-4.391Z" style="fill:#407BFF;"></path><path d="M308.495,228.207v9.531h-31.162v-37.48h30.466v9.53h-18.044v4.391h15.849v9.103h-15.849v4.926h18.74Z" style="fill:#407BFF;"></path><path d="M348.174,227.618c0,6.425-4.873,10.12-14.35,10.12h-17.883v-37.48h16.812c8.621,0,13.439,3.641,13.439,9.691,0,4.069-2.088,6.907-5.033,8.353,4.23,1.178,7.014,4.337,7.014,9.316Zm-26.878-23.024v11.994h10.976c5.461,0,8.567-2.035,8.567-5.997s-3.105-5.997-8.567-5.997h-10.976Zm21.471,22.595c0-4.337-3.213-6.265-9.156-6.265h-12.314v12.476h12.314c5.943,0,9.156-1.874,9.156-6.211Z" style="fill:#263238;"></path><path d="M381.535,237.738l-8.085-11.512c-.749,.054-1.553,.107-2.355,.107h-9.263v11.405h-5.354v-37.48h14.617c9.744,0,15.634,4.926,15.634,13.064,0,5.783-2.998,9.959-8.245,11.833l8.888,12.582h-5.836Zm-.16-24.416c0-5.354-3.588-8.406-10.441-8.406h-9.101v16.866h9.101c6.853,0,10.441-3.105,10.441-8.459Z" style="fill:#263238;"></path><path d="M419.286,228.368h-19.918l-4.123,9.37h-5.515l16.974-37.48h5.301l17.026,37.48h-5.622l-4.123-9.37Zm-1.874-4.283l-8.085-18.365-8.085,18.365h16.17Z" style="fill:#263238;"></path><path d="M466.837,200.258v37.48h-4.39l-22.488-27.95v27.95h-5.354v-37.48h4.391l22.488,27.949v-27.949h5.353Z" style="fill:#263238;"></path><path d="M478.086,200.258h15.795c12.048,0,20.239,7.603,20.239,18.74s-8.191,18.74-20.239,18.74h-15.795v-37.48Zm15.474,32.822c9.264,0,15.206-5.676,15.206-14.082s-5.942-14.082-15.206-14.082h-10.119v28.164h10.119Z" style="fill:#263238;"></path></g><g><g><rect x="417.912" y="258.139" width="32.927" height="32.927" style="fill:#263238;"></rect><path d="M437.714,288.989c-.193,0,10.929-10.928,10.929-10.928v10.928h-10.929Z" style="fill:#fff;"></path></g><g><rect x="463.04" y="258.139" width="32.927" height="32.927" style="fill:#407BFF;"></rect><rect x="463.04" y="258.139" width="32.927" height="32.927" style="fill:#fff; opacity:.6;"></rect><path d="M482.841,288.989c-.193,0,10.929-10.928,10.929-10.928v10.928h-10.929Z" style="fill:#fff;"></path></g><g><rect x="371.856" y="258.139" width="32.927" height="32.927" style="fill:#407BFF;"></rect><path d="M392.065,288.989c-.193,0,10.929-10.928,10.929-10.928v10.928h-10.929Z" style="fill:#fff;"></path></g></g></g><g id="freepik--Text--inject-400"><g><g><rect x="418.824" y="98.361" width="62.943" height="63.254" style="fill:#407BFF;"></rect><rect x="418.824" y="98.361" width="62.943" height="63.254" style="fill:#fff; opacity:.4;"></rect><rect x="418.824" y="98.361" width="62.943" height="8.63" style="fill:#fff; opacity:.4;"></rect><circle cx="424.18" cy="102.676" r="1.998" style="fill:#fff;"></circle><path d="M431.825,102.676c0,1.104-.895,1.998-1.998,1.998s-1.998-.895-1.998-1.998,.895-1.998,1.998-1.998,1.998,.895,1.998,1.998Z" style="fill:#fff;"></path><circle cx="435.473" cy="102.676" r="1.998" style="fill:#fff;"></circle></g><g><g><polygon points="468.626 151.057 462.251 151.057 462.251 150.307 467.876 150.307 467.876 144.682 468.626 144.682 468.626 151.057" style="fill:#407BFF;"></polygon><rect x="447.034" y="150.307" width="7.608" height=".75" style="fill:#407BFF;"></rect><polygon points="439.426 151.057 433.051 151.057 433.051 144.682 433.801 144.682 433.801 150.307 439.426 150.307 439.426 151.057" style="fill:#407BFF;"></polygon><rect x="433.051" y="129.464" width=".75" height="7.608" style="fill:#407BFF;"></rect><polygon points="433.801 121.855 433.051 121.855 433.051 115.48 439.426 115.48 439.426 116.23 433.801 116.23 433.801 121.855" style="fill:#407BFF;"></polygon><rect x="447.034" y="115.48" width="7.608" height=".75" style="fill:#407BFF;"></rect><polygon points="468.626 121.855 467.876 121.855 467.876 116.23 462.251 116.23 462.251 115.48 468.626 115.48 468.626 121.855" style="fill:#407BFF;"></polygon><rect x="467.876" y="129.464" width=".75" height="7.608" style="fill:#407BFF;"></rect></g><path d="M441.247,142.515c.686-.046,1.237-.356,1.654-.931,.269-.361,.653-1.158,1.154-2.39l6.324-15.581h.792l6.353,14.956c.713,1.677,1.246,2.759,1.598,3.245,.352,.487,.852,.721,1.5,.702v.723h-9.214v-.723c.926-.037,1.536-.115,1.827-.236,.292-.12,.438-.426,.438-.917,0-.222-.075-.56-.222-1.015-.093-.269-.219-.593-.376-.973l-.724-1.724h-6.39c-.418,1.131-.687,1.867-.808,2.21-.25,.732-.375,1.265-.375,1.599,0,.408,.274,.704,.821,.89,.324,.102,.81,.158,1.459,.167v.723h-5.81v-.723Zm10.686-5.99l-2.738-6.588h-.239l-2.569,6.588h5.546Z" style="fill:#407BFF;"></path><rect x="430.323" y="113.378" width="4.575" height="4.574" style="fill:#407BFF;"></rect><rect x="465.693" y="113.378" width="4.574" height="4.574" style="fill:#407BFF;"></rect><rect x="430.323" y="148.394" width="4.575" height="4.575" style="fill:#407BFF;"></rect><rect x="465.693" y="148.394" width="4.574" height="4.575" style="fill:#407BFF;"></rect></g></g></g><g id="freepik--Configuration--inject-400"><g><g><rect x="238.776" y="59.562" width="90.325" height="94.778" style="fill:#407BFF;"></rect><rect x="238.776" y="59.562" width="90.325" height="94.778" style="fill:#fff; opacity:.6;"></rect><rect x="238.776" y="59.562" width="90.325" height="11.544" style="fill:#fff; opacity:.4;"></rect><path d="M248.237,65.538c0,1.328-1.077,2.405-2.406,2.405s-2.405-1.077-2.405-2.405,1.077-2.405,2.405-2.405,2.406,1.077,2.406,2.405Z" style="fill:#fff;"></path><path d="M255.034,65.538c0,1.328-1.077,2.405-2.405,2.405s-2.405-1.077-2.405-2.405,1.077-2.405,2.405-2.405,2.405,1.077,2.405,2.405Z" style="fill:#fff;"></path><path d="M261.83,65.538c0,1.328-1.077,2.405-2.405,2.405s-2.405-1.077-2.405-2.405,1.077-2.405,2.405-2.405,2.405,1.077,2.405,2.405Z" style="fill:#fff;"></path></g><path d="M309.697,105.462c-.68-3.281-1.98-6.331-3.758-9.04l3.237-3.91-6.92-6.921-3.91,3.236c-2.709-1.777-5.759-3.078-9.04-3.758l-.475-5.039h-9.787l-.475,5.039c-3.28,.68-6.331,1.981-9.039,3.758l-3.91-3.236-6.92,6.921,3.237,3.91c-1.778,2.709-3.078,5.759-3.758,9.04l-5.039,.475v9.786l5.039,.475c.68,3.28,1.98,6.33,3.758,9.039l-3.237,3.91,6.92,6.92,3.91-3.237c2.709,1.778,5.759,3.078,9.039,3.758l.475,5.039h9.787l.475-5.039c3.28-.68,6.331-1.98,9.04-3.759l3.91,3.237,6.92-6.92-3.237-3.91c1.778-2.709,3.078-5.759,3.758-9.039l5.039-.475v-9.786l-5.039-.475Zm-12.51,5.368c0,7.317-5.931,13.249-13.249,13.249s-13.249-5.932-13.249-13.249,5.932-13.249,13.249-13.249,13.249,5.932,13.249,13.249Z" style="fill:#407BFF;"></path></g></g><g id="freepik--Tools--inject-400"><g><rect x="166.565" y="137.361" width="33.86" height="161.27" style="fill:#407BFF;"></rect><rect x="166.565" y="137.361" width="33.86" height="161.27" style="fill:#fff; opacity:.4;"></rect><rect x="166.565" y="137.361" width="33.86" height="9.632" style="fill:#fff; opacity:.4;"></rect><polygon points="176.575 156.604 179.243 172.793 183.214 166.741 190.415 165.299 176.575 156.604" style="fill:#407BFF;"></polygon><rect x="176.058" y="180.521" width="14.875" height="14.875" style="fill:#407BFF;"></rect><path d="M189.682,207.351v3.735h-.366c-.217-.862-.458-1.481-.723-1.857-.265-.377-.628-.677-1.089-.901-.258-.122-.709-.183-1.354-.183h-1.028v10.645c0,.706,.039,1.147,.117,1.323,.078,.176,.23,.331,.458,.463,.227,.132,.538,.199,.931,.199h.458v.376h-7.226v-.376h.458c.4,0,.723-.071,.967-.214,.176-.095,.315-.258,.417-.488,.074-.163,.112-.59,.112-1.283v-10.645h-.997c-.93,0-1.605,.197-2.025,.59-.59,.549-.963,1.333-1.12,2.351h-.387v-3.735h12.396Z" style="fill:#407BFF;"></path><path d="M177.842,242.027c-.116,0-.232-.04-.327-.122-.209-.181-.231-.496-.051-.705l10.907-12.604c.181-.209,.496-.231,.705-.051s.231,.496,.051,.705l-10.907,12.604c-.099,.114-.238,.173-.378,.173Z" style="fill:#407BFF;"></path><g><polygon points="185.892 248.891 190.404 252.498 188.243 254.941 183.734 251.334 185.892 248.891" style="fill:#407BFF;"></polygon><path d="M183.141,252.23l-4.614,2.217-2.34,8.833,.59,.486,5.088-6.124c-.239-.324-.251-.772,.018-1.096,.318-.382,.886-.435,1.269-.118s.436,.883,.118,1.264c-.277,.333-.738,.398-1.107,.205l-5.084,6.119,.542,.447,8.273-3.941,1.443-4.961-4.198-3.332Z" style="fill:#407BFF;"></path></g><circle cx="171.295" cy="141.991" r="1.756" style="fill:#fff;"></circle><circle cx="176.396" cy="141.991" r="1.756" style="fill:#fff;"></circle><circle cx="181.496" cy="141.991" r="1.756" style="fill:#fff;"></circle><g><path d="M181.475,285.423c-3.115,0-5.648-2.534-5.648-5.648s2.534-5.648,5.648-5.648,5.648,2.534,5.648,5.648-2.534,5.648-5.648,5.648Zm0-10.297c-2.563,0-4.648,2.085-4.648,4.648s2.085,4.648,4.648,4.648,4.648-2.085,4.648-4.648-2.085-4.648-4.648-4.648Z" style="fill:#407BFF;"></path><path d="M184.93,283.583l4.449,2.702c.388,.236,.892,.123,1.144-.255h0c.265-.398,.147-.937-.26-1.188l-4.255-2.626-1.077,1.366Z" style="fill:#407BFF;"></path></g></g></g><g id="freepik--Character_2--inject-400"><g><g><path d="M645.638,215.18s3.296,29.979,0,32.743c-3.296,2.764-13.385-1.382-13.385-1.382l8.983-31.361h4.401Z" style="fill:#fdbbb5;"></path><path d="M639.678,226.713h8.707s.61-11.462-1.925-15.095-6.783,15.095-6.783,15.095Z" style="fill:#263238;"></path><path d="M640.458,227.002s3.704-8.712,3.606-8.563-3.151,20.763-5.452,21.038-1.958-.973-1.958-.973c0,0,1.492-6.049,3.804-11.502Z" style="opacity:.2;"></path></g><g><path d="M614.863,174.362c.114,.011,.229-.024,.319-.096,.177-.148,.204-.41,.059-.591-.87-1.031-2.179-1.586-3.525-1.495-.226,.028-.387,.235-.359,.462l.002,.014c.024,.227,.228,.392,.455,.368h.009c1.069-.081,2.109,.366,2.788,1.196,.061,.08,.152,.131,.252,.143Z" style="fill:#263238;"></path><path d="M613.035,179.644c-.424,1.7-1.081,3.334-1.953,4.854,.799,.428,1.747,.477,2.586,.133l-.633-4.988Z" style="fill:#d7504d;"></path><path d="M613.527,178.346c.088,.709-.219,1.336-.682,1.396-.462,.06-.908-.463-.945-1.156-.036-.693,.208-1.327,.671-1.397,.463-.07,.857,.447,.955,1.158Z" style="fill:#263238;"></path><path d="M631.106,191.133c-.085,.074-.176,.14-.273,.197-1.329,1.016-2.847,1.76-4.464,2.189-4.727,1.094-7.955,.449-10.067-1.696h0c-2.943-3.206-3.687-8.885-3.283-15.746,.074-2.729,.58-5.428,1.499-7.999v-.12c0-.022,.077-.208,.12-.295,1.178-2.943,3.763-5.092,6.872-5.712,1.33-.292,2.687-.442,4.049-.449,13.393-.142,15.79,22.049,5.548,29.631Z" style="fill:#fdbbb5;"></path><path d="M632.189,203.399c.821,3.808-4.103,5.362-4.103,5.362-8.064-3.447-9.553-7.736-9.553-7.736,6.719-3.502,4.771-13.426,4.771-13.426l1.368,.678,9.607,1.871s-2.67,5.121-3.02,6.281h0c-1.816,6.128,.93,6.97,.93,6.97Z" style="fill:#fdbbb5;"></path><path d="M614.517,167.99s-.744,9.367,8.141,13.393c0,0,3.808,9.739,9.432,9.848,7.66,.197,14.389-10.702,11.741-21.786-3.436-14.345-25.233-15.538-29.314-1.455Z" style="fill:#263238;"></path><path d="M630.832,158.033s-8.94-2.265-13.886,1.324c-5.766,4.202-7.955,8.546-1.094,15.319,0,0,15.013-4.869,20.002-3.83,2.919,.591,5.785,1.422,8.568,2.484,1.018-9.947-8.6-17.333-13.59-15.297Z" style="fill:#263238;"></path><g><path d="M623.855,177.639c.027,1.71-.617,3.363-1.795,4.603-1.58,1.62-3.491,.49-3.995-1.585-.462-1.868-.181-4.972,1.854-5.822,1.482-.583,3.156,.145,3.739,1.627,.147,.374,.215,.775,.198,1.177Z" style="fill:#fdbbb5;"></path><path d="M619.883,181.637c-.081,0-.16-.04-.209-.112-.076-.115-.044-.271,.071-.346,.842-.556,1.417-1.526,1.499-2.533,.03-.377-.016-.673-.138-.905-.134-.252-.379-.42-.612-.42-.009,0-.015,0-.02,0-.135,0-.246-.108-.25-.244-.004-.138,.105-.252,.243-.256,.421,.011,.854,.257,1.08,.685,.169,.319,.232,.705,.194,1.18-.095,1.157-.754,2.271-1.722,2.91-.042,.028-.09,.042-.138,.042Z" style="opacity:.3;"></path></g><ellipse cx="639.095" cy="169.391" rx="2.263" ry="3.39" style="fill:#407BFF;"></ellipse><path d="M678.936,205.26c-.889-1.538-2.649-1.556-4.214-1.596-5.599-.143-11.633-1.777-14.94-6.297-2.239-3.06-2.894-6.994-3.073-10.782-.179-3.788,.047-7.623-.706-11.339-.754-3.717-2.692-7.431-6.054-9.185-3.188-1.663-7.312-1.194-10.035,1.123-.343,.292-.583,.689-.733,1.114l-.069,.197c-.229,.648-.189,1.352,.066,1.989,3.661,9.153-1.279,15.693-1.249,22.423,.028,6.252,.175,12.913,3.662,18.103,2.254,3.355,5.778,5.777,9.643,6.956,3.866,1.179,8.051,1.154,11.981,.212,.43-.103,.937-.299,1.007-.736,.054-.334-.184-.637-.407-.891-1.115-1.274-2.231-2.547-3.346-3.821,4.751,1.019,9.8,.605,14.321-1.175,1.771-.697,3.555-1.678,4.285-3.545,.348-.89,.338-1.922-.14-2.75Z" style="fill:#263238;"></path></g><path d="M612.779,177.216l-1.763-.263s1.038,1.223,1.763,.263Z" style="fill:#263238;"></path><path d="M605.435,202.48s10.669-3.589,26.754,.788,14.455,9.99,14.455,9.99c0,0-12.146,21.775-13.743,46.45l-34.533-3.359s2.527-17.026,1.527-20.526c-3.234-11.318-.003-25.79,5.541-33.343Z" style="fill:#263238;"></path><g><path d="M622.734,432.576l-7.937,1.522c-7.599-25.147-15.684-53.545-19.258-79.598-.553-4.081-.53-13.46-.948-17.071-.209-1.707-.419-3.359-.613-4.935-.957-7.835-1.615-14.039-2.004-17.869-.284-2.801-.434-4.377-.434-4.377h28.851l-.269,5.373-.897,17.759-.09,2.024-.598,11.719-.956,20.728c4.708,17.133,5.663,64.952,5.154,64.724Z" style="fill:#fdbbb5;"></path><g><path d="M600.979,453.131c1.397-.828,2.981-1.456,4.676-1.853h0s5.09-3.696,7.737-15.01l6.619-1.211c2.275-.37,4.617,.36,5.888,1.837,.176,.208,.315,.433,.411,.67,.299,1.204,.501,2.421,.604,3.644,.266,4.158,.208,8.324-.174,12.477l-1.237-.002-.284-7.837c.004-2.662-2.887,.427-3.715,3.267-.828,2.839-2.541,5.945-10.238,5.935-8.855,.018-12.586-.285-10.286-1.917Z" style="fill:#263238;"></path><path d="M614.653,432.211s-1.499,5.173-3.941,10.895c-1.005,2.948-2.749,5.722-5.136,8.172,0,0,5.752,.856,8.308-2.041,2.557-2.896,6.183-12.885,12.014-12.282l-3.171-5.826c-.941-1.057-8.074,1.082-8.074,1.082Z" style="fill:#fdbbb5;"></path></g></g><g><path d="M652.599,431.342l-7.71,.232c-6.715-25.878-15.245-60.41-21.2-87.018-.917-4.089-1.747-7.861-2.483-11.383,.017-.174-.058-.346-.108-.516-1.46-6.888-2.562-12.336-3.246-15.853l-.814-4.211,24.961-1.222,.554,8.846,.865,12.987,.162,2.544,.567,8.848,1.474,23.729c11.633,28.247,6.958,67.993,6.976,63.016Z" style="fill:#fdbbb5;"></path><g><path d="M630.131,450.955c1.397-.828,2.981-1.455,4.676-1.853h0s5.09-3.696,7.737-15.009l6.619-1.211c2.275-.371,4.617,.36,5.888,1.837,.176,.208,.314,.433,.411,.67,.299,1.204,.501,2.421,.604,3.644,.266,4.158,.208,8.324-.174,12.477l-1.237-.002-.284-7.838c.004-2.662-2.887,.427-3.715,3.267-.828,2.839-2.541,5.945-10.238,5.935-8.855,.018-12.586-.285-10.286-1.917Z" style="fill:#263238;"></path><path d="M644.889,425.923s-2.583,9.285-5.025,15.007c-1.005,2.948-2.749,5.723-5.136,8.172,0,0,5.752,.856,8.308-2.041,2.556-2.896,6.183-12.885,12.014-12.282l-2.451-5.164c-.941-1.057-7.71-3.692-7.71-3.692Z" style="fill:#fdbbb5;"></path></g></g><g><path d="M597.032,258.58h0l2.085-7.834,34.427,2.581-.031,7.452h0c13.765,24.379,10.439,52.172,10.439,52.172l3.224,34.857s-1.483,4.541-24.648,6.051c-20.363,1.335-30.298,.171-30.298,.171-7.222-42.302,.217-86.969,4.801-95.45Z" style="fill:#407BFF;"></path><path d="M633.022,303.723c-.628,.209-12.667,13.89-12.667,13.89l2.173,28.696,1.532-28.557,8.962-14.03Z" style="opacity:.2;"></path></g><g><g><g><rect x="582.693" y="180.534" width="15.121" height="43.708" transform="translate(-25.945 104.104) rotate(-9.864)" style="fill:#407BFF;"></rect><rect x="582.693" y="180.534" width="15.121" height="43.708" transform="translate(-25.945 104.104) rotate(-9.864)" style="fill:#fff; opacity:.1;"></rect><rect x="582.693" y="180.534" width="15.121" height="43.708" transform="translate(-25.945 104.104) rotate(-9.864)" style="fill:#fff; opacity:.5;"></rect><g><g><rect x="581.706" y="182.163" width="12.179" height="12.179" transform="translate(-23.56 103.476) rotate(-9.864)" style="fill:#263238;"></rect><rect x="581.706" y="182.163" width="12.179" height="12.179" transform="translate(-23.56 103.476) rotate(-9.864)" style="fill:#fff; opacity:.6;"></rect></g><g><rect x="583.996" y="195.333" width="12.179" height="12.179" transform="translate(-25.781 104.058) rotate(-9.863)" style="fill:#263238;"></rect><rect x="583.996" y="195.333" width="12.179" height="12.179" transform="translate(-25.781 104.058) rotate(-9.863)" style="fill:#fff; opacity:.4;"></rect></g><g><rect x="586.286" y="208.503" width="12.179" height="12.179" transform="translate(-28.004 104.645) rotate(-9.863)" style="fill:#263238;"></rect><rect x="586.286" y="208.503" width="12.179" height="12.179" transform="translate(-28.004 104.645) rotate(-9.863)" style="fill:#fff; opacity:.2;"></rect></g></g></g><g><rect x="574.216" y="181.548" width="15.121" height="48.718" transform="translate(-20.713 339.577) rotate(-32)" style="fill:#407BFF;"></rect><rect x="574.216" y="181.548" width="15.121" height="48.718" transform="translate(-20.713 339.577) rotate(-32)" style="fill:#fff; opacity:.3;"></rect><g><rect x="566.753" y="185.52" width="12.179" height="12.179" transform="translate(-14.494 332.673) rotate(-32)" style="fill:#407BFF;"></rect><rect x="566.753" y="185.52" width="12.179" height="12.179" transform="translate(-14.494 332.673) rotate(-32)" style="fill:#fff; opacity:.6;"></rect></g><g><rect x="573.837" y="196.857" width="12.179" height="12.179" transform="translate(-19.426 338.145) rotate(-31.999)" style="fill:#407BFF;"></rect><rect x="573.837" y="196.857" width="12.179" height="12.179" transform="translate(-19.426 338.145) rotate(-31.999)" style="fill:#fff; opacity:.4;"></rect></g><g><rect x="580.921" y="208.193" width="12.179" height="12.179" transform="translate(-24.356 343.625) rotate(-32)" style="fill:#407BFF;"></rect><rect x="580.921" y="208.193" width="12.179" height="12.179" transform="translate(-24.356 343.625) rotate(-32)" style="fill:#fff; opacity:0;"></rect></g></g><g><rect x="568.685" y="186.916" width="15.121" height="52.146" transform="translate(66.525 555.929) rotate(-54.218)" style="fill:#407BFF;"></rect><rect x="568.685" y="186.916" width="15.121" height="52.146" transform="translate(66.525 555.929) rotate(-54.218)" style="fill:#fff; opacity:.5;"></rect></g><g><rect x="555.414" y="196.274" width="12.179" height="12.179" transform="translate(69.022 539.555) rotate(-54.218)" style="fill:#407BFF;"></rect><rect x="555.414" y="196.274" width="12.179" height="12.179" transform="translate(69.022 539.555) rotate(-54.218)" style="opacity:.6;"></rect></g><g><rect x="566.258" y="204.09" width="12.179" height="12.179" transform="translate(67.186 551.601) rotate(-54.218)" style="fill:#407BFF;"></rect><rect x="566.258" y="204.09" width="12.179" height="12.179" transform="translate(67.186 551.601) rotate(-54.218)" style="opacity:.4;"></rect></g><g><rect x="577.103" y="211.906" width="12.179" height="12.179" transform="translate(65.35 563.646) rotate(-54.218)" style="fill:#407BFF;"></rect><rect x="577.103" y="211.906" width="12.179" height="12.179" transform="translate(65.35 563.646) rotate(-54.218)" style="opacity:.2;"></rect></g><path d="M594.031,223.297c.912,.657,1.119,1.93,.461,2.842-.657,.912-1.93,1.119-2.842,.461-.912-.657-1.119-1.93-.461-2.842,.657-.912,1.93-1.119,2.842-.461Z" style="fill:#263238;"></path></g><path d="M564.611,220.131c-.297,.447,14.116,20.924,20.215,20.329,6.099-.595,23.552-22.324,25.635-27.17,2.276-5.293,1.398-10.959-3.596-10.884-4.994,.074-8.755,5.889-12.708,12.136-3.953,6.248-9.48,12.036-9.48,12.036l-15.621-10.639-4.445,4.192Z" style="fill:#fdbbb5;"></path><path d="M564.968,220.869s-2.327-1.631-5.51-4.311c-3.182-2.68-4.536-6.329-4.536-6.329l-.118-3.393s3.803,3.62,4.267,3.978,4.8,.068,4.454-.288c-.346-.356-4.682-5.292-3.614-5.738,1.068-.446,5.243,2.656,7.525,4.651,2.283,1.995,2.641,7.594,2.641,7.594l-5.109,3.836Z" style="fill:#fdbbb5;"></path><path d="M594.889,212.291c.146,.87,10.776,11.42,10.776,11.42,0,0,11.235-14.417,5.418-20.578-5.817-6.161-16.193,9.159-16.193,9.159Z" style="fill:#263238;"></path></g><path d="M600.669,226.713c-.116,.136,1.502,1.349,4.559-1.555,.95-.902,5.168-9.099,5.168-9.099l-5.168,6.889-.957-.627-3.602,4.393Z" style="opacity:.2;"></path></g></g><g id="freepik--Character_1--inject-400"><g><g><path d="M273.944,338.118l14.569,2.206,15.782,1.507,17.458-24.592,7.526,2.251s-13.161,35.086-19.917,36.902c-6.756,1.816-39.482-1.357-39.482-1.357l4.064-16.916Z" style="fill:#fdad6a;"></path><path d="M316.494,303.628c-.297,.362-.335,.871-.152,1.301,.447,1.053,1.448,3.422,1.944,4.688,.415,1.062,2.487,6.817,3.366,7.97,.879,1.153,6.347,3.459,6.347,3.459,0,0,5.032-4.784,5.598-6.905,.566-2.122,1.245-4.917,.59-5.755s-1.392-.373-1.913-.773c-.521-.4-.716-1.507-2.474-1.145,0,0-1.256-2.183-2.826-1.306,0,0,.173-1.618,1.257-4.514,1.221-3.261,1.089-3.613,.04-4.171-1.049-.558-2.691,2.974-3.486,4.606-.795,1.633-3.204,7.914-3.204,7.914h0c-.476-.669-1.426-2.518-2.442-4.017-1.136-1.676-2.068-2.053-2.643-1.352Z" style="fill:#fdad6a;"></path><path d="M326.441,313.59c-.448,0-.908-.267-1.175-.701-.229-.372-.329-.832-.314-1.444,.05-2.026,.894-4.056,1.571-5.686l.462,.191c-.662,1.592-1.486,3.573-1.533,5.506-.013,.513,.063,.884,.24,1.171,.173,.28,.53,.52,.874,.45,.239-.052,.468-.248,.7-.602,.376-.572,.625-1.238,.865-1.884l1.23-3.298,.469,.174-1.23,3.299c-.25,.671-.509,1.364-.916,1.984-.309,.468-.64,.734-1.013,.814-.076,.017-.153,.024-.23,.024Z" style="fill:#fe7f3a;"></path><path d="M328.998,313.45c-.613,0-1.306-.354-1.554-.863l.449-.219c.207,.424,.973,.712,1.406,.529,.506-.208,.875-.693,1.169-1.142,.566-.861,1.022-1.792,1.356-2.765l.473,.162c-.347,1.012-.822,1.98-1.411,2.877-.336,.512-.765,1.069-1.396,1.33-.149,.062-.317,.09-.492,.09Z" style="fill:#fe7f3a;"></path><path d="M331.018,314.087c-.111,0-.219-.011-.324-.032-.486-.1-.914-.766-1.006-1.199l.489-.104c.064,.3,.387,.766,.618,.812,.267,.056,.581,.007,.933-.145,.749-.321,1.351-.938,1.652-1.695l.465,.186c-.351,.879-1.05,1.597-1.92,1.969-.321,.139-.625,.208-.908,.208Z" style="fill:#fe7f3a;"></path><path d="M325.476,316.194l-.492-.09c.404-2.2-.61-4.609-2.467-5.857l.279-.414c2.017,1.355,3.119,3.972,2.68,6.361Z" style="fill:#fe7f3a;"></path><path d="M304.295,341.831s.963,3.032,1.347,5.292c0,0,1.167-4.642-.571-6.385l-.775,1.092Z" style="opacity:.3;"></path></g><g><path d="M273.408,413.228l-.403-14.487,.507-49.602-3.632-13.685-17.551-3.011-12.871-.122-22.747,7.226-.786,11.192s.715,51.52,.544,53.067c-.21,1.897-6.096,13.669-6.096,13.669,24.489,6.345,63.373-2.536,63.035-4.248Z" style="fill:#407BFF;"></path><path d="M268.533,335.206s2.224-1.474,3.321-.848c1.096,.626,1.801,1.722,1.801,1.722l18.084,3.802s-5.245,19.997-5.48,19.997-15.971-1.566-15.971-1.566l-1.755-23.108Z" style="fill:#407BFF;"></path><path d="M273.416,358.625s.058-12.336,.097-12.124c.039,.212,5.335,12.662,5.335,12.662l-5.432-.537Z" style="opacity:.3;"></path></g><g><path d="M238.221,334.828s3.251-6.436,1.145-17.095c1.29-.603-.416-3.27-.362-4.337l13.452,10.03c-.624,3.295,.008,9.823,.483,12.598l-5.188,4.714-9.53-5.911Z" style="fill:#fdad6a;"></path><path d="M252.105,325.401l-7.801-.621c1.315,2.314,2.24,4.346,7.951,4.58,0,0,.048-2.855-.15-3.958Z" style="opacity:.2;"></path><path d="M257.478,293.651c2.397,2.826,3.439,10.984-2.028,10.724-5.467-.259-2.092-15.581,2.028-10.724Z" style="fill:#263238;"></path><path d="M235.373,308.686c2.858,8.64,4.296,13.571,9.919,16.865,23.615,10.118,21.812-30.692,3.454-33.383-9.373-1.122-16.231,7.879-13.373,16.519Z" style="fill:#fdad6a;"></path><path d="M227.93,297.945c1.233-8.371,14.829-7.949,18.9-6.449,.608,.224-5.516,5.849-5.128,5.568l-3.033,2.122c-4.274,2.165,3.437,9.056-.239,16.531-8.133-1.052-11.127-11.665-10.5-17.771Z" style="fill:#263238;"></path><path d="M248.005,307.824c.585,2.116,2.733,1.461,2.113-.625-.585-2.116-2.732-1.46-2.113,.625Z" style="fill:#263238;"></path><path d="M257.076,305.459c.585,2.116,2.732,1.461,2.113-.624-.585-2.116-2.732-1.46-2.113,.624Z" style="fill:#263238;"></path><path d="M254.026,305.785s4.095,3.636,5.517,5.187c-.924,1.478-3.215,1.57-3.215,1.57l-2.302-6.757Z" style="fill:#fe7f3a;"></path><path d="M244.817,304.199c.151,.017,.307-.046,.403-.178,1.149-1.573,2.751-1.518,2.767-1.518,1.737-1.15-1.876-1.397-3.468,1.011-.2,.258-.023,.658,.298,.686Z" style="fill:#263238;"></path><g><path d="M233.604,317.094c2.353,4.386,10.885,5.544,8.669-1.225-1.744-6.66-12.082-6.615-8.669,1.225Z" style="fill:#fdad6a;"></path><path d="M239.645,315.841c-.106,0-.204-.067-.238-.174-.358-1.126-1.731-2.266-2.825-2.346-.64-.056-1.13,.256-1.446,.899-.061,.124-.211,.177-.334,.114-.124-.061-.175-.211-.115-.335,.403-.821,1.09-1.245,1.932-1.178,1.29,.095,2.846,1.378,3.265,2.692,.042,.132-.031,.272-.163,.314-.025,.008-.051,.012-.076,.012Z" style="opacity:.2;"></path></g><path d="M259.814,300.593c.299-.149,.307-.618,.006-.77-2.105-1.151-3.864-.199-3.948-.166-.494,.26-.088,1.042,.407,.77,.231-.372,1.927-.339,3.535,.167Z" style="fill:#263238;"></path><g><path d="M231.44,311.337s6.034-8.617,13.4-12.634c8.155-4.447,14.131-3.124,14.131-3.124,0,0,1.397-1.369,.499-2.144-.898-.776-1.735-.096-1.735-.096,0,0-8.749-9.322-19.195-6.342-10.446,2.98-13.924,9.432-13.501,9.9,2.148,2.383,3.382-1.315,3.382-1.315,0,0-2.54,3.387,.387,10.307l.866,2.709s-.716,3.161,1.767,2.739Z" style="fill:#263238;"></path><path d="M231.44,311.337s6.034-8.617,13.4-12.634c8.155-4.447,14.131-3.124,14.131-3.124,0,0,1.397-1.369,.499-2.144-.898-.776-1.735-.096-1.735-.096,0,0-8.749-9.322-19.195-6.342-10.446,2.98-13.924,9.432-13.501,9.9,2.148,2.383,3.382-1.315,3.382-1.315,0,0-2.54,3.387,.387,10.307l.866,2.709s-.716,3.161,1.767,2.739Z" style="fill:#fff; opacity:.7;"></path><path d="M245.014,298.315c1.117-.378,1.942-1.493,1.977-2.672,.023-.775-.261-1.52-.459-2.269-.198-.749-.304-1.582,.05-2.271,.302-.589,.938-.993,1.6-1.016,.662-.023,1.324,.335,1.667,.902-.248-.466-.077-1.066,.27-1.464s.835-.639,1.309-.87c.855-.416,1.813-.843,2.724-.57,.911,.273,1.488,1.174,1.806,2.07,.41,1.156,.519,2.453,.102,3.606-.557,1.543-1.986,2.643-3.528,3.204-1.542,.561-3.208,.66-4.846,.754" style="fill:#263238;"></path><path d="M228.085,296.185s1.19-3.963,6.087-5.949l-6.087,5.949Z" style="opacity:.2;"></path><path d="M230.278,308.442l-.223-.113c2.966-5.824,9.169-11.702,15.435-14.627l.105,.227c-6.219,2.902-12.375,8.735-15.318,14.514Z" style="opacity:.3;"></path></g><g><path d="M255.634,315.795c-.64,1.129-1.198,2.303-1.668,3.512-.222-.047-.451-.089-.671-.147-3.031-.679-4.218-1.99-4.599-3.248-.176-.618-.204-1.269-.082-1.9,.06-.357,.17-.704,.326-1.031,1.393,1.321,4.162,2.171,5.665,2.562,.655,.138,1.028,.252,1.028,.252Z" style="fill:#263238;"></path><path d="M254.638,315.521l-.521,1.023c-2.846-.645-4.764-1.472-5.47-2.554,.06-.357,.17-.704,.326-1.031,1.402,1.334,4.162,2.171,5.666,2.562Z" style="fill:#fff;"></path><path d="M253.327,319.139c-3.031-.679-4.218-1.99-4.599-3.248,1.147,.279,2.236,.758,3.216,1.417,.64,.452,1.124,1.092,1.383,1.832Z" style="fill:#d7504d;"></path></g></g><g><g><path d="M308.61,419.102l-42.163,25.082,5.292,8.013s-3.036,4.225-8.185-9.182l26.105-16.171s-7.991-1.041-7.753-2.288c.401-2.048,18.123-5.443,26.205-6.97,.419-.137,.87,.091,1.007,.51,.137,.419-.091,.87-.51,1.007Z" style="isolation:isolate; opacity:.2;"></path><path d="M265.034,441.176l6.836,11.845c-8.899,1.285-17.911,1.728-26.906,1.323-2.958-.106-5.872-.723-8.602-1.822l-2.386-4.686,5.753-10.764,25.306,4.104Z" style="isolation:isolate; opacity:.2;"></path><g><polygon points="278.873 436.954 260.12 448.086 263.156 457.118 285.056 448.042 278.873 436.954" style="fill:#fdad6a;"></polygon><g><path d="M249.9,450.779l1.617,6.479s1.348,.326,1.731,1.69c.215,.767-.406,2.844-.406,2.844l4.316,17.85c.026-.006,1.224-.292,1.705-.618,.587-.398,1.065-.809,1.452-1.229,1.352-1.472,1.56-3.656,1.657-5.276,.162-2.715,1.957-10.605,1.957-10.605,0,0,.657-2.05,2.894-3.807,1.248-.98,1.848-2.246,1.758-3.043-.182-1.626-1.327-2.269-2.847-2.131l-1.765,.162c-1.229-.974-1.568-2.568-.728-4.07,0,0,1.154-3.827-.482-3.226-.934,.344-5.051,2.037-8.344,3.277-.767,.29-1.494,.562-2.131,.802v.002c-1.414,.532-2.385,.899-2.385,.899Z" style="fill:#263238;"></path><path d="M263.126,466.126c.053-.098,.03-.223-.051-.302-.37-.36-.831-.625-1.358-.752-.278-.067-.419,.379-.138,.446,.468,.112,.876,.343,1.199,.658,.108,.105,.275,.085,.346-.046l.002-.004Z" style="fill:#407BFF;"></path><path d="M263.534,464.569c.053-.098,.03-.223-.051-.302-.37-.36-.831-.625-1.358-.752-.278-.067-.419,.379-.138,.446,.468,.112,.875,.343,1.199,.658,.108,.105,.275,.085,.346-.046l.002-.004Z" style="fill:#407BFF;"></path><path d="M263.881,462.982c.053-.098,.03-.223-.051-.302-.37-.36-.831-.625-1.358-.752-.278-.067-.419,.379-.138,.446,.468,.112,.875,.343,1.199,.658,.108,.105,.275,.085,.346-.046l.002-.004Z" style="fill:#407BFF;"></path></g><path d="M252.285,449.878v.002c-1.414,.532-2.385,.899-2.385,.899l1.618,6.479s1.348,.326,1.731,1.69c.215,.767-.406,2.844-.406,2.844l4.316,17.85c.026-.006,1.224-.292,1.705-.618,.27-.183,.51-.369,.736-.557l-6.96-28.723c-.117,.044-.244,.092-.355,.134Z" style="fill:#fff; isolation:isolate; opacity:.2;"></path><path d="M266.38,464.351c-.193,0-.391-.021-.588-.064-.653-.145-1.875-1.047-2.233-1.319l-.188-.143,.223-.075c.603-.203,1.226-.413,1.87-.51,.736-.109,1.393-.053,1.954,.17,.394,.157,.638,.401,.689,.688,.067,.376-.207,.711-.486,.898-.348,.233-.781,.354-1.241,.354Zm-2.48-1.44c.687,.507,1.508,1.035,1.946,1.132,.604,.133,1.199,.04,1.636-.253,.213-.144,.425-.39,.379-.648-.047-.268-.356-.428-.536-.499-.518-.206-1.132-.26-1.824-.154-.544,.081-1.08,.249-1.602,.423Z" style="fill:#407BFF;"></path><path d="M263.502,463.032l-.011-.235c-.021-.45-.067-1.967,.186-2.587,.259-.633,.726-1.121,1.28-1.339,.312-.124,.743-.158,1.015,.111,.207,.205,.269,.546,.173,.959-.135,.587-.462,1.159-.972,1.702-.449,.479-.975,.869-1.482,1.248l-.189,.141Zm1.924-4.005c-.128,0-.262,.031-.377,.076-.491,.193-.907,.631-1.14,1.201-.17,.416-.204,1.392-.177,2.244,.438-.328,.88-.673,1.259-1.077,.479-.51,.786-1.044,.912-1.587,.043-.188,.087-.533-.106-.725-.097-.096-.231-.133-.371-.133Z" style="fill:#407BFF;"></path></g></g><g><polygon points="296.857 452.219 318.276 456.318 321.991 447.544 299.579 439.82 296.857 452.219" style="fill:#fdad6a;"></polygon><g><path d="M327.713,461.077l3.084-5.923s-.793-1.138-.175-2.413c.347-.717,2.189-1.86,2.189-1.86l8.602-16.225c-.024-.013-1.11-.593-1.687-.668-.703-.091-1.334-.101-1.902-.042-1.988,.206-3.592,1.703-4.738,2.852-1.921,1.925-8.496,6.642-8.496,6.642,0,0-1.851,1.1-4.69,.932-1.584-.094-2.873,.456-3.334,1.112-.942,1.338-.511,2.578,.719,3.483l1.429,1.049c.275,1.544-.528,2.962-2.154,3.53,0,0-3.401,2.1-1.777,2.734,.927,.362,5.132,1.824,8.419,3.078,.766,.292,1.491,.569,2.127,.812h.001c1.411,.538,2.382,.907,2.382,.907Z" style="fill:#263238;"></path><path d="M327.986,440.819c-.104,.038-.17,.147-.162,.26,.038,.515,.208,1.019,.518,1.463,.164,.234,.565-.006,.399-.242-.276-.395-.428-.837-.462-1.288-.011-.15-.15-.246-.289-.195l-.005,.002Z" style="fill:#407BFF;"></path><path d="M326.648,441.714c-.104,.038-.17,.147-.162,.259,.038,.515,.208,1.019,.518,1.463,.164,.234,.565-.006,.399-.242-.276-.395-.428-.837-.462-1.288-.011-.15-.149-.246-.289-.195l-.005,.002Z" style="fill:#407BFF;"></path><path d="M325.336,442.672c-.104,.038-.17,.147-.162,.259,.038,.515,.208,1.019,.518,1.463,.164,.234,.565-.006,.399-.242-.276-.395-.428-.837-.462-1.288-.011-.151-.149-.246-.289-.194l-.005,.002Z" style="fill:#407BFF;"></path></g><path d="M330.622,452.741c.347-.716,2.189-1.86,2.189-1.86l8.602-16.225c-.024-.013-1.11-.593-1.687-.668-.323-.042-.627-.062-.92-.071l-13.831,26.117c.116,.044,.243,.093,.354,.135h.001c1.411,.538,2.382,.907,2.382,.907l3.084-5.923s-.793-1.138-.175-2.413Z" style="fill:#fff; isolation:isolate; opacity:.2;"></path><path d="M325.613,443.129l-.217-.092c-.585-.248-1.19-.504-1.737-.859-.625-.406-1.079-.885-1.35-1.422-.19-.378-.212-.723-.059-.973,.2-.326,.63-.392,.959-.35,.589,.079,1.159,.442,1.562,.996,.394,.541,.709,2.025,.797,2.468l.046,.231Zm-2.588-3.457c-.215,0-.452,.062-.563,.242-.142,.232-.018,.557,.069,.729,.251,.498,.676,.944,1.264,1.326,.461,.3,.974,.529,1.479,.745-.177-.835-.442-1.774-.706-2.138-.363-.498-.871-.824-1.393-.895-.047-.007-.098-.01-.15-.01Z" style="fill:#407BFF;"></path><path d="M322.513,445.158c-.247,0-.487-.041-.708-.122-.315-.115-.661-.374-.686-.756-.02-.291,.16-.587,.505-.833,.491-.35,1.116-.562,1.857-.629,.649-.062,1.305-.006,1.937,.047l.234,.021-.148,.183c-.283,.352-1.255,1.52-1.854,1.814-.371,.183-.762,.275-1.138,.275Zm1.575-2.117c-.195,0-.39,.008-.583,.025-.697,.064-1.28,.261-1.735,.584-.157,.112-.418,.342-.401,.614,.017,.261,.281,.448,.522,.537,.496,.183,1.097,.13,1.65-.144,.402-.198,1.074-.906,1.62-1.563-.354-.028-.714-.054-1.072-.054Z" style="fill:#407BFF;"></path></g><path d="M216.275,440.022c-4.424-7.528-14.324-27.87,7.08-31.145,21.404-3.275,91.537,32.624,91.537,32.624l-4.907,13.442-65.897-12.388s8.702,12.361-2.268,11.486c-15.936-2.053-19.66-5.99-25.545-14.019Z" style="fill:#263238;"></path><path d="M245.667,442.737l-18.17-5.717s15.244,9.326,20.835,10.435l-2.665-4.718Z" style="isolation:isolate; opacity:.2;"></path></g><g><g><path d="M289.587,414.378l-17.747,.441-18.831,.468v.012c.044,1.396,1.632,2.484,3.546,2.43l18.815-.468,10.763-.268h.052l29.953-.746c1.899-.06,3.399-1.229,3.355-2.614l-29.906,.744Z" style="fill:#263238;"></path><path d="M316.683,416.092l-33.416,.831c-.577,.01-1.05-.356-1.056-.819-.001-.087,.014-.174,.046-.257l14.018-34.45c.351-.983,1.454-1.676,2.723-1.712l33.436-.831c.565-.014,1.033,.343,1.044,.797,.002,.095-.016,.19-.054,.281l-14.018,34.45c-.357,.98-1.456,1.671-2.723,1.712Z" style="fill:#263238;"></path><path d="M332.434,378.853l-33.436,.831c-1.27,.036-2.372,.729-2.723,1.712l-13.489,33.151-10.945,.272-18.831,.468v.012c.044,1.396,1.632,2.484,3.546,2.43l18.815-.468,10.763-.268h.052l29.953-.746c.602-.019,1.155-.159,1.641-.373,.77-.281,1.38-.816,1.627-1.495l14.018-34.45c.038-.091,.056-.185,.054-.281-.011-.454-.478-.81-1.044-.796Z" style="fill:#fff; isolation:isolate; opacity:.5;"></path><path d="M312.804,397.496c-.681,1.654-2.117,2.813-3.214,2.611-1.097-.201-1.425-1.685-.765-3.342,.66-1.657,2.113-2.792,3.21-2.59,1.097,.201,1.458,1.624,.769,3.321Z" style="fill:#fff;"></path></g><g style="opacity:.3;"><line x1="282.172" y1="414.562" x2="282.785" y2="414.547" style="fill:none; stroke:#000; stroke-linecap:round; stroke-linejoin:round; stroke-width:0px;"></line><path d="M296.274,381.396l-13.489,33.151,1.549-.039,14.664-34.824c-1.27,.036-2.372,.729-2.723,1.712Z"></path></g></g><g><polygon points="230.048 370.591 233.994 369.527 229.455 356.953 237.094 371.94 230.839 374.372 230.048 370.591" style="opacity:.2;"></polygon><path d="M227.231,355.715s5.329,30.762,8.003,33.817c4.518,5.162,27.239,19.177,27.239,19.177l11.656-3.705c.816-.242,1.706-.07,2.352,.454l7.71,6.253-.772,.613c-.333,.265-.806,.306-1.184,.104l-1.208-.646,1.331,1.384-.445,.353c-.442,.351-1.045,.465-1.596,.3l-3.499-1.05,3.191,2.262c-.744,.591-1.762,.774-2.683,.482l-5.117-1.623c-3.543,.701-7.143,1.109-10.759,1.219-6.087,.195-34.484-10.676-39.615-18.174-5.132-7.498-9.747-38.138-9.747-38.138l15.143-3.082Z" style="fill:#fdad6a;"></path><path d="M212.826,375.237s-6.543-30.334,3.885-35.689c6.779-3.481,17.283,29.978,17.283,29.978l-21.168,5.71Z" style="fill:#407BFF;"></path></g></g></g></svg>
