<svg xmlns="http://www.w3.org/2000/svg" viewBox="0 0 750 500"><g id="freepik--background-complete--inject-7"><path d="M225.78,143.27H99.14V56.63H225.78Zm-125.64-1H224.78V57.63H100.14Z" style="fill:#ebebeb"></path><path d="M109.05,62.21a2.52,2.52,0,1,1-2.52-2.52A2.52,2.52,0,0,1,109.05,62.21Z" style="fill:#a6a6a6"></path><path d="M119.34,62.21a2.52,2.52,0,1,1-2.52-2.52A2.52,2.52,0,0,1,119.34,62.21Z" style="fill:#ebebeb"></path><path d="M129.63,62.21a2.52,2.52,0,1,1-2.52-2.52A2.52,2.52,0,0,1,129.63,62.21Z" style="fill:#232745"></path><rect x="99.64" y="66.65" width="125.64" height="1" style="fill:#ebebeb"></rect><path d="M693.57,205.19l5.89-9.49-2.91-1.8a2.62,2.62,0,0,1-1.23-2.49c0-.56.06-1.12,0-1.67a2.65,2.65,0,0,1,1.38-2.41l3-1.62-5.28-9.84-3,1.61a2.66,2.66,0,0,1-2.77-.18,16,16,0,0,0-1.42-.88,2.66,2.66,0,0,1-1.4-2.41l.11-3.41-11.16-.35-.11,3.43a2.65,2.65,0,0,1-1.55,2.31l-.74.37-.71.41a2.68,2.68,0,0,1-2.77,0L666,175l-5.89,9.49,2.91,1.81a2.64,2.64,0,0,1,1.23,2.5,15.34,15.34,0,0,0,0,1.66,2.64,2.64,0,0,1-1.39,2.41l-3,1.62,5.28,9.84,3-1.61a2.64,2.64,0,0,1,2.77.17,16,16,0,0,0,1.42.88,2.66,2.66,0,0,1,1.4,2.41l-.1,3.42,11.16.35.11-3.43a2.64,2.64,0,0,1,1.55-2.3l.74-.37.71-.41a2.67,2.67,0,0,1,2.79,0Zm-9.45-7a9.15,9.15,0,1,1,3.74-12.39A9.15,9.15,0,0,1,684.12,198.15Z" style="fill:#ebebeb"></path><path d="M635.36,270l-3.91-6.77-2.07,1.2a1.87,1.87,0,0,1-2-.07c-.33-.21-.67-.41-1-.59a1.86,1.86,0,0,1-1-1.65v-2.39h-7.82v2.39a1.84,1.84,0,0,1-1,1.65,11.12,11.12,0,0,0-1,.59,1.87,1.87,0,0,1-1.95.07l-2.08-1.2L607.58,270l2.09,1.2a1.89,1.89,0,0,1,.91,1.73c0,.19,0,.38,0,.58s0,.38,0,.57a1.87,1.87,0,0,1-.91,1.72L607.58,277l3.91,6.77,2.08-1.2a1.87,1.87,0,0,1,1.95.07,10.23,10.23,0,0,0,1,.59,1.85,1.85,0,0,1,1,1.65v2.4h7.82v-2.4a1.87,1.87,0,0,1,1-1.65,9.19,9.19,0,0,0,1-.59,1.87,1.87,0,0,1,2-.07l2.08,1.2,3.91-6.77-2.08-1.2a1.87,1.87,0,0,1-.91-1.72c0-.2,0-.39,0-.58s0-.39,0-.58a1.88,1.88,0,0,1,.91-1.73Zm-7.48,3.51a6.41,6.41,0,1,1-6.41-6.42A6.41,6.41,0,0,1,627.88,273.46Z" style="fill:#ebebeb"></path><path d="M633.27,93.76a30.47,30.47,0,1,0,30.47,30.47A30.47,30.47,0,0,0,633.27,93.76Zm0,44.69a14.23,14.23,0,1,1,14.24-14.22A14.22,14.22,0,0,1,633.27,138.45Z" style="fill:#ebebeb"></path><polygon points="639.13 95.02 627.41 95.02 628.06 86.72 638.48 86.72 639.13 95.02" style="fill:#ebebeb"></polygon><polygon points="616.83 98.97 608.54 107.25 603.14 100.93 610.5 93.56 616.83 98.97" style="fill:#ebebeb"></polygon><polygon points="603.85 117.53 603.85 129.25 595.55 128.6 595.55 118.18 603.85 117.53" style="fill:#ebebeb"></polygon><polygon points="607.8 139.84 616.08 148.12 609.76 153.53 602.39 146.16 607.8 139.84" style="fill:#ebebeb"></polygon><polygon points="626.36 152.81 638.08 152.81 637.43 161.11 627.01 161.11 626.36 152.81" style="fill:#ebebeb"></polygon><polygon points="648.66 148.87 656.95 140.58 662.36 146.9 654.99 154.27 648.66 148.87" style="fill:#ebebeb"></polygon><polygon points="661.64 130.3 661.64 118.58 669.94 119.23 669.94 129.66 661.64 130.3" style="fill:#ebebeb"></polygon><polygon points="657.7 108 649.41 99.71 655.73 94.31 663.1 101.68 657.7 108" style="fill:#ebebeb"></polygon><path d="M692.37,294.22l-13.12.28-6.66.11c-2.23.05-4.47,0-6.7.06h-.44v-.45L665.39,283v-.5h.5l13.24.06c4.42,0,8.83.11,13.24.16h.28V283c0,1.9-.08,3.79-.13,5.66Zm0,0-.14-5.65c-.05-1.86-.11-3.7-.13-5.54l.27.28c-4.41.05-8.82.16-13.24.16l-13.24.06.5-.5,0,11.19-.45-.44c2.18,0,4.36,0,6.55.05L679,294Z" style="fill:#ebebeb"></path><path d="M677.6,308.33l-13.12.28-6.67.11c-2.22,0-4.46,0-6.69.06h-.44v-.45l0-11.19v-.5h.5l13.24.07c4.41,0,8.83.11,13.24.16h.28v.27c0,1.9-.08,3.79-.13,5.66Zm0,0-.14-5.65c-.05-1.86-.11-3.7-.13-5.54l.27.28c-4.41.05-8.83.16-13.24.16l-13.24.06.5-.5,0,11.19-.45-.44c2.18,0,4.36,0,6.55.05l6.57.12Z" style="fill:#ebebeb"></path><path d="M707.14,308.33l-13.12.28-6.66.11c-2.23,0-4.47,0-6.7.06h-.44v-.45l-.06-11.19v-.5h.5l13.24.07c4.42,0,8.83.11,13.24.16h.28v.27c0,1.9-.09,3.79-.13,5.66Zm0,0-.14-5.65c0-1.86-.11-3.7-.13-5.54l.27.28c-4.41.05-8.82.16-13.24.16l-13.24.06.5-.5,0,11.19-.45-.44c2.19,0,4.36,0,6.55.05l6.58.12Z" style="fill:#ebebeb"></path><path d="M314.79,161.07l-13.12.28-6.66.11c-2.23,0-4.47,0-6.7,0h-.44v-.45l-.06-11.19v-.5h.5l13.24.06c4.42,0,8.83.11,13.24.16h.28v.27c0,1.9-.09,3.78-.14,5.65Zm0,0-.14-5.66c0-1.86-.11-3.7-.13-5.53l.27.27c-4.41,0-8.82.16-13.24.16l-13.24.07.5-.5-.05,11.19-.45-.45c2.18,0,4.36,0,6.55.06l6.58.11Z" style="fill:#ebebeb"></path><path d="M300,175.18l-13.12.28-6.67.11c-2.22,0-4.46,0-6.69.05h-.44v-.45L273,164v-.5h.5l13.24.06c4.41,0,8.83.11,13.24.16h.28V164c0,1.9-.08,3.78-.13,5.65Zm0,0-.14-5.66c-.05-1.86-.11-3.7-.13-5.53l.27.27c-4.41.05-8.83.16-13.24.16l-13.24.07.5-.5L274,175.18l-.45-.45c2.18,0,4.36,0,6.55.06l6.57.11Z" style="fill:#ebebeb"></path><path d="M329.56,175.18l-13.12.28-6.66.11c-2.23,0-4.46,0-6.7.05h-.44v-.45L302.58,164v-.5h.5l13.24.06c4.42,0,8.83.11,13.24.16h.28V164c0,1.9-.09,3.78-.13,5.65Zm0,0-.14-5.66c0-1.86-.11-3.7-.13-5.53l.27.27c-4.41.05-8.82.16-13.24.16l-13.24.07.5-.5-.05,11.19-.45-.45c2.19,0,4.36,0,6.55.06l6.58.11Z" style="fill:#ebebeb"></path><path d="M98.88,235.11l-13.12.28-6.67.11c-2.22,0-4.46,0-6.69.05H72v-.45l0-11.19v-.5h.5l13.24.06c4.41,0,8.83.11,13.24.16h.28v.27c0,1.9-.08,3.78-.13,5.65Zm0,0-.14-5.66c0-1.86-.11-3.7-.13-5.53l.27.27c-4.41.05-8.83.16-13.24.16l-13.24.07.5-.5-.05,11.19-.45-.45c2.18,0,4.36,0,6.55.06l6.57.11Z" style="fill:#ebebeb"></path><path d="M537.86,161.06l-13.12.28-6.66.11c-2.23.05-4.47,0-6.7.05h-.44v-.45l-.06-11.19v-.5h.5l13.24.06c4.42,0,8.83.12,13.24.17h.28v.27c0,1.9-.08,3.79-.13,5.65Zm0,0-.14-5.65c-.05-1.87-.11-3.71-.13-5.54l.27.27c-4.41.05-8.82.16-13.24.17l-13.24.06.5-.5-.05,11.19-.45-.45c2.18,0,4.36,0,6.55.06l6.58.11Z" style="fill:#ebebeb"></path><path d="M690.84,52.38l-13.12.28-6.67.11c-2.22,0-4.46,0-6.69.06h-.44v-.45l0-11.19v-.5h.5l13.24.06c4.41,0,8.83.12,13.24.17h.28v.27c0,1.9-.08,3.79-.13,5.65Zm0,0-.14-5.65c-.05-1.87-.11-3.71-.13-5.54l.27.27c-4.41,0-8.83.16-13.24.17l-13.24.06.5-.5-.05,11.19-.45-.45c2.18,0,4.36,0,6.55.06l6.57.11Z" style="fill:#ebebeb"></path><path d="M705.61,66.49l-13.12.28-6.66.11c-2.23.05-4.47,0-6.7.06h-.44v-.45l-.06-11.19v-.5h.5l13.24.06c4.42,0,8.83.12,13.24.17h.28v.27c0,1.9-.09,3.79-.14,5.65Zm0,0-.14-5.65c0-1.87-.11-3.71-.13-5.54l.27.27c-4.41,0-8.82.16-13.24.17l-13.24.06.5-.5,0,11.19-.45-.45c2.18,0,4.36,0,6.55.06l6.58.11Z" style="fill:#ebebeb"></path><path d="M69.34,52.39l-13.13.28-6.66.11c-2.22,0-4.46,0-6.69.06h-.45v-.45l0-11.19v-.5h.51l13.24.07c4.41,0,8.82.11,13.24.16h.27v.27c0,1.9-.09,3.79-.13,5.66Zm0,0-.15-5.65c0-1.86-.11-3.71-.13-5.54l.28.27c-4.42.06-8.83.16-13.24.17l-13.24.06.5-.5L43.3,52.39,42.86,52c2.18,0,4.35,0,6.54,0l6.58.11Z" style="fill:#ebebeb"></path><path d="M63,143.28V359.4H278.79Zm39.57,97.93,78.69,78.69H102.67Z" style="fill:#dbdbdb"></path><path d="M63,143.29V359.4h215.8L70.58,150.91l-1-1Zm39.57,97.92,78.69,78.69H102.67Z" style="fill:#ebebeb"></path><rect x="62.98" y="152.41" width="7.42" height="1.03" style="fill:#c7c7c7"></rect><rect x="62.98" y="157.22" width="4.37" height="1.03" style="fill:#c7c7c7"></rect><rect x="62.98" y="162.01" width="4.37" height="1.03" style="fill:#c7c7c7"></rect><rect x="62.98" y="166.81" width="4.37" height="1.03" style="fill:#c7c7c7"></rect><rect x="62.98" y="171.62" width="4.37" height="1.03" style="fill:#c7c7c7"></rect><rect x="62.98" y="176.41" width="4.37" height="1.05" style="fill:#c7c7c7"></rect><rect x="62.98" y="181.21" width="4.37" height="1.03" style="fill:#c7c7c7"></rect><rect x="62.98" y="186.02" width="7.42" height="1.03" style="fill:#c7c7c7"></rect><rect x="62.98" y="190.82" width="4.37" height="1.03" style="fill:#c7c7c7"></rect><rect x="62.98" y="195.61" width="4.37" height="1.03" style="fill:#c7c7c7"></rect><rect x="62.98" y="200.42" width="4.37" height="1.03" style="fill:#c7c7c7"></rect><rect x="62.98" y="205.22" width="4.37" height="1.03" style="fill:#c7c7c7"></rect><rect x="62.98" y="210.01" width="4.37" height="1.03" style="fill:#c7c7c7"></rect><rect x="62.98" y="214.82" width="4.37" height="1.03" style="fill:#c7c7c7"></rect><rect x="62.98" y="219.63" width="7.42" height="1.03" style="fill:#c7c7c7"></rect><rect x="62.98" y="224.42" width="4.37" height="1.03" style="fill:#c7c7c7"></rect><rect x="62.98" y="229.22" width="4.37" height="1.03" style="fill:#c7c7c7"></rect><rect x="62.98" y="234.03" width="4.37" height="1.03" style="fill:#c7c7c7"></rect><rect x="62.98" y="238.82" width="4.37" height="1.05" style="fill:#c7c7c7"></rect><rect x="62.98" y="243.62" width="4.37" height="1.03" style="fill:#c7c7c7"></rect><rect x="62.98" y="248.43" width="4.37" height="1.03" style="fill:#c7c7c7"></rect><rect x="62.98" y="253.23" width="7.42" height="1.03" style="fill:#c7c7c7"></rect><rect x="62.98" y="258.02" width="4.37" height="1.03" style="fill:#c7c7c7"></rect><rect x="62.98" y="262.83" width="4.37" height="1.03" style="fill:#c7c7c7"></rect><rect x="62.98" y="267.63" width="4.37" height="1.03" style="fill:#c7c7c7"></rect><rect x="62.98" y="272.42" width="4.37" height="1.03" style="fill:#c7c7c7"></rect><rect x="62.98" y="277.23" width="4.37" height="1.03" style="fill:#c7c7c7"></rect><rect x="62.98" y="282.03" width="4.37" height="1.03" style="fill:#c7c7c7"></rect><rect x="62.98" y="286.82" width="7.42" height="1.05" style="fill:#c7c7c7"></rect><rect x="62.98" y="291.63" width="4.37" height="1.03" style="fill:#c7c7c7"></rect><rect x="62.98" y="296.44" width="4.37" height="1.03" style="fill:#c7c7c7"></rect><rect x="62.98" y="301.24" width="4.37" height="1.03" style="fill:#c7c7c7"></rect><rect x="62.98" y="306.03" width="4.37" height="1.03" style="fill:#c7c7c7"></rect><rect x="62.98" y="310.84" width="4.37" height="1.03" style="fill:#c7c7c7"></rect><rect x="62.98" y="315.64" width="4.37" height="1.03" style="fill:#c7c7c7"></rect><rect x="62.98" y="320.43" width="7.42" height="1.03" style="fill:#c7c7c7"></rect><rect x="62.98" y="325.24" width="4.37" height="1.03" style="fill:#c7c7c7"></rect><rect x="62.98" y="330.04" width="4.37" height="1.03" style="fill:#c7c7c7"></rect><rect x="62.98" y="334.83" width="4.37" height="1.03" style="fill:#c7c7c7"></rect><rect x="62.98" y="339.64" width="4.37" height="1.03" style="fill:#c7c7c7"></rect><rect x="62.98" y="344.44" width="4.37" height="1.03" style="fill:#c7c7c7"></rect><rect x="62.98" y="349.23" width="4.37" height="1.05" style="fill:#c7c7c7"></rect></g><g id="freepik--Plant--inject-7"><path d="M656.87,297.45s16.84-3.82,26.07-12.32,14.38-23.74,14.38-23.74a145.6,145.6,0,0,0-18.88,5,31.46,31.46,0,0,0-5.71,8.08,38.35,38.35,0,0,1-.05-5.78,25.65,25.65,0,0,0-6,3.64C659,279,656.87,297.45,656.87,297.45Z" style="fill:#232745"></path><path d="M686.81,268.79c2.29-1.58,4.63-3.12,6.92-4.72.13-.09,0-.31-.14-.22-4.34,2.59-8.62,5.36-12.76,8.26q-2.16,1.51-4.26,3.14l.3-.5c.5-.85,1-1.68,1.57-2.51a36.81,36.81,0,0,1,3.57-4.77c0-.05,0-.13-.08-.08-1.31,1.51-2.62,3-3.82,4.61-.57.77-1.09,1.56-1.6,2.36-.26.42-.51.85-.75,1.28l-.26.43c-2.17,1.71-4.29,3.49-6.32,5.38-1.25,1.16-2.45,2.37-3.61,3.61.65-2,1.22-4.1,2-6.1,0-.07-.09-.1-.11,0-.73,2.1-1.53,4.22-2.1,6.38-1.29,1.39-2.53,2.84-3.69,4.34l.06-.27c.19-.8.39-1.59.61-2.38.41-1.52.85-3,1.37-4.53a26.27,26.27,0,0,1,4.52-8.54c0-.06,0-.13-.08-.08a32.84,32.84,0,0,0-6.45,13.47c-.18.71-.35,1.43-.52,2.16-.08.38-.18.77-.25,1.16-.51.69-1,1.38-1.48,2.09a72.68,72.68,0,0,0-7.13,14,162.29,162.29,0,0,0-5.39,16.83c0,.11.13.15.17,0,3.29-9.85,6.65-19.85,12.29-28.65a65.75,65.75,0,0,1,3.85-5.38,32.09,32.09,0,0,0,8.18-1.63,36.39,36.39,0,0,0,8.21-4,49.66,49.66,0,0,0,4.2-3.17.06.06,0,1,0-.07-.09,33.82,33.82,0,0,1-7.71,4.67,42.48,42.48,0,0,1-8.5,2.85c-1.24.27-2.5.47-3.76.64a69.74,69.74,0,0,1,5-5.5c.57-.57,1.16-1.11,1.74-1.66a39.61,39.61,0,0,1,6.23-3.56c2.76-1.34,5.47-2.75,8.2-4.14,1.54-.78,3.07-1.58,4.63-2.34.06,0,0-.13-.06-.1-2.77,1.34-5.58,2.58-8.38,3.86-2.62,1.21-5.28,2.42-7.81,3.84l-.31.18c2.28-2,4.64-3.87,7-5.7C682.24,272,684.51,270.39,686.81,268.79Z" style="fill:#263238"></path><path d="M685.85,277.48c-1.37.6-2.76,1.13-4.12,1.76s-2.71,1.42-4,2.2c-.06,0,0,.12,0,.09,1.34-.65,2.7-1.25,4-1.92s2.71-1.41,4.11-2C686,277.56,685.92,277.45,685.85,277.48Z" style="fill:#263238"></path><path d="M602.18,213.12a24.14,24.14,0,0,1,5,14c0,1.51-.18,3.61-.36,6.09a39.91,39.91,0,0,1,11,9.39,19.85,19.85,0,0,0-11.1-2.66,33.29,33.29,0,0,0,.64,5,18.87,18.87,0,0,1,7.14,1.41,16,16,0,0,0-6.44,1.28c3,9.55,11.92,19.36,36.56,23.53a51.7,51.7,0,0,0-4.37-34.67C632.89,222,602.18,213.12,602.18,213.12Z" style="fill:#232745"></path><path d="M653.17,311.51q-.64-6.12-1.6-12.2a241.56,241.56,0,0,0-5-24.12,98.47,98.47,0,0,0-3.55-11,18.55,18.55,0,0,0,.09-2c0-.79,0-1.58,0-2.37,0-1.57-.09-3.15-.23-4.72a56.52,56.52,0,0,0-1.51-9.24c-.45-1.75-1-3.48-1.49-5.22a.06.06,0,0,0-.11,0,68.94,68.94,0,0,1,1.82,9.22,89.76,89.76,0,0,1,.83,9.25c0,.85,0,1.69,0,2.54,0,.36,0,.72,0,1.09a80.82,80.82,0,0,0-4.16-8.59,103.43,103.43,0,0,0-8.43-12.62,5.35,5.35,0,0,0-.2-1.38c-.12-.55-.23-1.1-.36-1.65-.25-1.12-.53-2.24-.84-3.35-.61-2.23-1.42-4.39-2.12-6.6,0-.07-.13,0-.11,0,.65,2.18,1.09,4.44,1.59,6.66.24,1.1.48,2.2.73,3.3.12.55.23,1.1.35,1.65a.5.5,0,0,0,0,.12c-1-1.25-2-2.49-3.05-3.71-4.71-5.52-9.86-10.61-15-15.66-.64-.62-1.3-1.23-1.94-1.84a.06.06,0,0,0-.08.08c5,5.18,9.84,10.41,14.47,15.89,1.1,1.31,2.18,2.62,3.24,4q-.84-.57-1.68-1.11c-1.43-.94-2.88-1.85-4.38-2.69s-3-1.66-4.53-2.42-3.27-1.42-4.8-2.31c-.06,0-.12.08,0,.1a36.38,36.38,0,0,1,4.49,2.49c1.5.89,3,1.79,4.47,2.72s2.91,1.83,4.34,2.76c1.2.78,2.38,1.63,3.62,2.35a114.09,114.09,0,0,1,7.9,11.49,85.1,85.1,0,0,1,4.08,7.73l-.89-.38-2.25-1-4.36-1.9c-2.76-1.21-5.57-2.31-8.28-3.63a38.82,38.82,0,0,1-4.42-2.45c-.06-.05-.12,0-.06.1,5,3.48,10.72,5.93,16.31,8.41l2.42,1.07c.67.29,1.33.62,2,.88a87,87,0,0,1,4.17,11.42A233.12,233.12,0,0,1,650,296.57c1.41,8,2.36,16.15,3.1,24.28.1,1,.19,2,.3,3a.32.32,0,0,0,.64,0C654,319.75,653.6,315.61,653.17,311.51Z" style="fill:#263238"></path><path d="M638.18,243.47c-.45-2.5-1.12-4.95-1.8-7.4,0-.07-.12,0-.11,0,.63,2.41,1.07,4.86,1.53,7.3s.86,5,1.22,7.5c0,0,.07,0,.06,0A66.36,66.36,0,0,0,638.18,243.47Z" style="fill:#263238"></path><path d="M627.56,250.27a43.35,43.35,0,0,0-5.36-3c-.89-.46-1.8-.9-2.71-1.35s-1.92-.83-2.85-1.3c-.06,0-.12.07,0,.1.9.46,1.75,1,2.64,1.49l2.73,1.49c1.81,1,3.58,2,5.47,2.83A.14.14,0,0,0,627.56,250.27Z" style="fill:#263238"></path><path d="M657.18,268.28s15.58-3.72,22.73-14.17c6.83-10,9-27,9.22-28.49-.28,1.37-3.5,16.24-14.1,23.17C666.9,254.09,659.06,258.46,657.18,268.28Z" style="fill:#263238;opacity:0.1"></path><path d="M671.56,241.36a19.88,19.88,0,0,0-5.74,9.46s0,.05,0,0a23.23,23.23,0,0,1,5.78-9.39C671.69,241.4,671.61,241.31,671.56,241.36Z" style="fill:#263238"></path><path d="M657.18,268.81s15.58-3.72,22.73-14.17c6.83-10,9-27,9.22-28.5a.65.65,0,0,1,0-.1s-7.47,10.62-15.33,13.33S654.93,251.45,657.18,268.81Z" style="fill:#232745"></path><path d="M686.38,231.37a62.82,62.82,0,0,1-4.81,8.24,33.36,33.36,0,0,1-6.41,6.59c-2.12,1.68-4.35,3.2-6.5,4.85a.56.56,0,0,0,.05-.08c.4-.59.83-1.17,1.28-1.74.89-1.14,1.86-2.21,2.85-3.28,1.93-2.1,3.91-4.16,5.64-6.43a23.56,23.56,0,0,0,2.5-4c0-.06-.08-.1-.11,0-2.52,5.26-7.57,8.63-11.17,13.08a19.87,19.87,0,0,0-1.44,2,7.43,7.43,0,0,0-.9,1.58,32.89,32.89,0,0,0-5.31,5.37,21.85,21.85,0,0,1,.62-3,15.58,15.58,0,0,1,1.65-3.95c0-.06-.06-.12-.09-.06a18.37,18.37,0,0,0-1.82,3.92,13.83,13.83,0,0,0-.57,3.36h0a33.16,33.16,0,0,0-2.1,3.28c.06-.34.13-.67.19-1,.31-1.55.65-3.1,1.06-4.63a27.67,27.67,0,0,1,3.74-8.78c0-.06-.05-.12-.09-.06a33.36,33.36,0,0,0-4.15,8.58c-.5,1.53-.9,3.09-1.25,4.66-.17.76-.32,1.53-.47,2.3-.07.4-.16.81-.23,1.22a56.19,56.19,0,0,0-3.59,10.56,154.6,154.6,0,0,0-3.32,19.7,164.26,164.26,0,0,0-1.08,20.92c0,.88.07,1.75.12,2.62,0,.23.35.26.36,0,.15-3.46.24-6.92.45-10.38s.5-6.9.87-10.35a185.59,185.59,0,0,1,3.25-20.14c1.26-5.7,2.9-11.43,6-16.42a31,31,0,0,1,5.62-6.68c2.19-2,4.58-3.68,6.88-5.5a38.11,38.11,0,0,0,6.31-6.06,49.56,49.56,0,0,0,5-8.05c.37-.7.75-1.4,1.12-2.11C686.51,231.37,686.42,231.3,686.38,231.37Z" style="fill:#263238"></path><path d="M683.7,233.65a52.06,52.06,0,0,1-3.48,6.07,0,0,0,0,0,.08.05,42.6,42.6,0,0,0,3.5-6.08C683.84,233.62,683.73,233.59,683.7,233.65Z" style="fill:#263238"></path><path d="M600,261.92s-.25,22.14,13,28.53,20.33,1.07,29.33,3.21h0c-.35-.53-6.77-9.76-17-12.3C614.83,278.73,603.19,271.14,600,261.92Z" style="fill:#232745"></path><path d="M600,261.92s-.25,22.14,13,28.53,20.33,1.07,29.33,3.21h0a50,50,0,0,0-15-4.44C618.91,288.2,603,282.76,600,261.92Z" style="opacity:0.2"></path><path d="M643.2,293.53a22.15,22.15,0,0,0-5.27-3.57l-.86-.37-.44-.51c-.4-.41-.81-.81-1.25-1.18a18.52,18.52,0,0,0-2.66-1.92c-2.2-1.29-4.6-2.19-6.84-3.39-.07,0-.12.07-.06.1,1.11.58,2.18,1.21,3.26,1.84s2.12,1.2,3.15,1.86a22.51,22.51,0,0,1,2.61,2,8.31,8.31,0,0,1,.68.65,36.34,36.34,0,0,0-4.47-1.19c-2.42-.49-4.87-.84-7.29-1.35a34.93,34.93,0,0,1-3.51-.95c-1.1-.88-2.2-1.76-3.24-2.72a26.23,26.23,0,0,1-3.42-3.8c-.05-.06-.14,0-.1.06a40,40,0,0,0,5.43,6c-.57-.21-1.14-.45-1.7-.7A27.37,27.37,0,0,1,605.94,275a.05.05,0,1,0-.09.06,31.09,31.09,0,0,0,9.12,8.76,28,28,0,0,0,5.77,2.73,53.19,53.19,0,0,0,7.16,1.69,49.43,49.43,0,0,1,7,1.67A21.34,21.34,0,0,1,640.8,293a27.62,27.62,0,0,1,7.94,9.84A49.7,49.7,0,0,1,653.11,319c0,.24.39.24.37,0C652.86,309.67,650.37,300,643.2,293.53Z" style="fill:#263238"></path><path d="M627.84,286.31a7.68,7.68,0,0,0-2.72-2.47,9.89,9.89,0,0,1-3.24-2.68c0-.06-.14,0-.1.06a10.92,10.92,0,0,0,2.86,2.56,10,10,0,0,1,3.11,2.58C627.79,286.41,627.87,286.36,627.84,286.31Z" style="fill:#263238"></path><polygon points="634.86 309.87 635.46 322.04 637.31 359.24 665.08 359.24 666.93 322.04 667.53 309.87 634.86 309.87" style="fill:#455a64"></polygon><polygon points="634.86 309.87 635.46 322.04 666.93 322.04 667.53 309.87 634.86 309.87" style="fill:#263238"></polygon><rect x="632.91" y="304.79" width="36.56" height="11.61" transform="translate(1302.39 621.19) rotate(180)" style="fill:#455a64"></rect></g><g id="freepik--Floor--inject-7"><polygon points="50.72 359.4 131.79 359.16 212.86 359.07 375 358.91 537.14 359.07 618.21 359.16 699.28 359.4 618.21 359.65 537.14 359.74 375 359.9 212.86 359.74 131.79 359.65 50.72 359.4" style="fill:#263238"></polygon></g><g id="freepik--Shadow--inject-7"><ellipse cx="375" cy="434.77" rx="309.39" ry="23.31" style="fill:#ebebeb"></ellipse></g><g id="freepik--Device--inject-7"><rect x="141.93" y="79.36" width="464.45" height="310.69" style="fill:#ebebeb"></rect><rect x="145.31" y="83.15" width="457.7" height="303.11" style="fill:#263238"></rect><rect x="81.44" y="413.34" width="585.44" height="21.32" style="fill:#dbdbdb"></rect><polygon points="81.44 413.34 141.93 390.04 606.39 390.04 666.88 413.34 81.44 413.34" style="fill:#ebebeb"></polygon><polygon points="147.33 405.08 186.37 390.04 561.95 390.04 600.99 405.08 147.33 405.08" style="fill:#263238"></polygon><rect x="171.17" y="106.17" width="405.97" height="257.05" style="fill:#fff"></rect><rect x="171.17" y="116.07" width="398.76" height="46.67" style="fill:#232745"></rect><rect x="171.17" y="106.17" width="405.97" height="9.89" style="fill:#455a64"></rect><path d="M179.56,111.12a2.45,2.45,0,1,1-2.45-2.45A2.45,2.45,0,0,1,179.56,111.12Z" style="fill:#c7c7c7"></path><path d="M189.58,111.12a2.46,2.46,0,1,1-2.45-2.45A2.45,2.45,0,0,1,189.58,111.12Z" style="fill:#fff"></path><path d="M199.6,111.12a2.46,2.46,0,1,1-2.46-2.45A2.46,2.46,0,0,1,199.6,111.12Z" style="fill:#232745"></path><rect x="569.94" y="116.07" width="7.21" height="247.16" style="fill:#dbdbdb"></rect><path d="M573.54,201.75h0a1.86,1.86,0,0,1-1.86-1.86V119.37a1.86,1.86,0,0,1,1.86-1.86h0a1.86,1.86,0,0,1,1.86,1.86v80.52A1.86,1.86,0,0,1,573.54,201.75Z" style="fill:#a6a6a6"></path><rect x="273.54" y="181.62" width="72.45" height="55.58" transform="translate(619.53 418.82) rotate(180)" style="fill:#232745"></rect><path d="M280.75,193.77a6.58,6.58,0,1,0,5.17-5.16A6.58,6.58,0,0,0,280.75,193.77Z" style="fill:#fff;opacity:0.6000000000000001"></path><polygon points="297.44 225.22 345.99 225.22 321.71 195.31 297.44 225.22" style="fill:#232745"></polygon><polygon points="297.44 225.22 345.99 225.22 321.71 195.31 297.44 225.22" style="opacity:0.2"></polygon><polygon points="273.54 225.25 316.59 225.25 295.07 205.77 273.54 225.25" style="fill:#232745"></polygon><polygon points="273.54 225.25 316.59 225.25 295.07 205.77 273.54 225.25" style="opacity:0.1"></polygon><rect x="273.54" y="225.23" width="72.45" height="11.98" style="fill:#232745"></rect><rect x="273.54" y="225.23" width="72.45" height="11.98" style="opacity:0.1"></rect><rect x="370.56" y="181.8" width="72.45" height="85.4" transform="translate(813.56 449) rotate(180)" style="fill:#455a64"></rect><path d="M377.77,206.49a6.58,6.58,0,1,0,5.16-5.16A6.59,6.59,0,0,0,377.77,206.49Z" style="fill:#fff;opacity:0.6000000000000001"></path><polygon points="394.46 237.95 443 237.95 418.73 208.03 394.46 237.95" style="fill:#263238"></polygon><polygon points="370.56 237.97 413.61 237.97 392.08 218.49 370.56 237.97" style="fill:#37474f"></polygon><rect x="370.56" y="237.95" width="72.45" height="29.25" style="fill:#37474f"></rect><path d="M273.54,245.7c4.92-.15,9.84-.23,14.76-.29l14.76-.08,14.76.08c4.92.06,9.85.13,14.77.29-4.92.16-9.85.23-14.77.29l-14.76.08L288.3,246C283.38,245.93,278.46,245.85,273.54,245.7Z" style="fill:#c7c7c7"></path><path d="M273.54,251.83c3.7-.16,7.39-.23,11.09-.29s7.39-.06,11.09-.09l11.09.09c3.7.06,7.39.13,11.09.29-3.7.15-7.39.22-11.09.29l-11.09.08c-3.7,0-7.39,0-11.09-.09S277.24,252,273.54,251.83Z" style="fill:#c7c7c7"></path><polygon points="372.06 345.26 370.18 345.26 370.18 343.39 370.93 343.39 370.93 344.51 372.06 344.51 372.06 345.26" style="fill:#c7c7c7"></polygon><path d="M438.48,345.26h-3v-.75h3Zm-6,0h-3v-.75h3Zm-6,0h-3v-.75h3Zm-6,0h-3v-.75h3Zm-6,0h-3v-.75h3Zm-6,0h-3v-.75h3Zm-6,0h-3v-.75h3Zm-6,0h-3v-.75h3Zm-6,0h-3v-.75h3Zm-6,0h-3v-.75h3Zm-6,0h-3v-.75h3Z" style="fill:#c7c7c7"></path><polygon points="443.38 345.26 441.5 345.26 441.5 344.51 442.63 344.51 442.63 343.39 443.38 343.39 443.38 345.26" style="fill:#c7c7c7"></polygon><path d="M443.38,340.29h-.75V337.2h.75Zm0-6.18h-.75V331h.75Zm0-6.19h-.75v-3.09h.75Zm0-6.19h-.75v-3.09h.75Zm0-6.18h-.75v-3.09h.75Zm0-6.19h-.75v-3.09h.75Zm0-6.19h-.75v-3.09h.75Zm0-6.18h-.75V293.9h.75Z" style="fill:#c7c7c7"></path><polygon points="443.38 290.8 442.63 290.8 442.63 289.68 441.5 289.68 441.5 288.93 443.38 288.93 443.38 290.8" style="fill:#c7c7c7"></polygon><path d="M438.48,289.68h-3v-.75h3Zm-6,0h-3v-.75h3Zm-6,0h-3v-.75h3Zm-6,0h-3v-.75h3Zm-6,0h-3v-.75h3Zm-6,0h-3v-.75h3Zm-6,0h-3v-.75h3Zm-6,0h-3v-.75h3Zm-6,0h-3v-.75h3Zm-6,0h-3v-.75h3Zm-6,0h-3v-.75h3Z" style="fill:#c7c7c7"></path><polygon points="370.93 290.8 370.18 290.8 370.18 288.93 372.06 288.93 372.06 289.68 370.93 289.68 370.93 290.8" style="fill:#c7c7c7"></polygon><path d="M370.93,340.29h-.75V337.2h.75Zm0-6.18h-.75V331h.75Zm0-6.19h-.75v-3.09h.75Zm0-6.19h-.75v-3.09h.75Zm0-6.18h-.75v-3.09h.75Zm0-6.19h-.75v-3.09h.75Zm0-6.19h-.75v-3.09h.75Zm0-6.18h-.75V293.9h.75Z" style="fill:#c7c7c7"></path><polygon points="469.52 237.13 467.64 237.13 467.64 235.25 468.39 235.25 468.39 236.38 469.52 236.38 469.52 237.13" style="fill:#c7c7c7"></polygon><path d="M535.94,237.13h-3v-.75h3Zm-6,0h-3v-.75h3Zm-6,0h-3v-.75h3Zm-6,0h-3v-.75h3Zm-6,0h-3v-.75h3Zm-6,0h-3v-.75h3Zm-6,0h-3v-.75h3Zm-6,0h-3v-.75h3Zm-6,0h-3v-.75h3Zm-6,0h-3v-.75h3Zm-6,0h-3v-.75h3Z" style="fill:#c7c7c7"></path><polygon points="540.84 237.13 538.96 237.13 538.96 236.38 540.09 236.38 540.09 235.25 540.84 235.25 540.84 237.13" style="fill:#c7c7c7"></polygon><path d="M540.84,232.16h-.75v-3.09h.75Zm0-6.19h-.75v-3.09h.75Zm0-6.18h-.75v-3.1h.75Zm0-6.19h-.75v-3.09h.75Zm0-6.19h-.75v-3.09h.75Zm0-6.18h-.75v-3.1h.75Zm0-6.19h-.75V192h.75Zm0-6.19h-.75v-3.09h.75Z" style="fill:#c7c7c7"></path><polygon points="540.84 182.67 540.09 182.67 540.09 181.54 538.96 181.54 538.96 180.79 540.84 180.79 540.84 182.67" style="fill:#c7c7c7"></polygon><path d="M535.94,181.54h-3v-.75h3Zm-6,0h-3v-.75h3Zm-6,0h-3v-.75h3Zm-6,0h-3v-.75h3Zm-6,0h-3v-.75h3Zm-6,0h-3v-.75h3Zm-6,0h-3v-.75h3Zm-6,0h-3v-.75h3Zm-6,0h-3v-.75h3Zm-6,0h-3v-.75h3Zm-6,0h-3v-.75h3Z" style="fill:#c7c7c7"></path><polygon points="468.39 182.67 467.64 182.67 467.64 180.79 469.52 180.79 469.52 181.54 468.39 181.54 468.39 182.67" style="fill:#c7c7c7"></polygon><path d="M468.39,232.16h-.75v-3.09h.75Zm0-6.19h-.75v-3.09h.75Zm0-6.18h-.75v-3.1h.75Zm0-6.19h-.75v-3.09h.75Zm0-6.19h-.75v-3.09h.75Zm0-6.18h-.75v-3.1h.75Zm0-6.19h-.75V192h.75Zm0-6.19h-.75v-3.09h.75Z" style="fill:#c7c7c7"></path><path d="M370.56,353.39c4.92-.16,9.84-.23,14.76-.29l14.76-.09,14.76.09c4.92.06,9.84.13,14.76.29-4.92.15-9.84.22-14.76.28l-14.76.09-14.76-.09C380.4,353.61,375.48,353.54,370.56,353.39Z" style="fill:#c7c7c7"></path><path d="M370.56,359.51c3.69-.15,7.39-.22,11.09-.28s7.39-.06,11.08-.09l11.09.08c3.7.06,7.4.14,11.09.29-3.69.16-7.39.23-11.09.29l-11.09.09c-3.69,0-7.39,0-11.08-.09S374.25,359.67,370.56,359.51Z" style="fill:#c7c7c7"></path><path d="M370.56,275.7c4.92-.15,9.84-.23,14.76-.29l14.76-.08,14.76.08c4.92.06,9.84.13,14.76.29-4.92.16-9.84.23-14.76.29l-14.76.08L385.32,276C380.4,275.93,375.48,275.85,370.56,275.7Z" style="fill:#c7c7c7"></path><path d="M370.56,281.83c3.69-.16,7.39-.23,11.09-.29s7.39-.06,11.08-.09l11.09.09c3.7.06,7.4.13,11.09.29-3.69.15-7.39.22-11.09.29l-11.09.08c-3.69,0-7.39,0-11.08-.09S374.25,282,370.56,281.83Z" style="fill:#c7c7c7"></path><rect x="273.54" y="259.49" width="72.45" height="85.4" transform="translate(619.53 604.39) rotate(180)" style="fill:#232745"></rect><rect x="273.54" y="259.49" width="72.45" height="85.4" transform="translate(619.53 604.39) rotate(180)" style="opacity:0.2"></rect><path d="M280.75,284.19a6.58,6.58,0,1,0,5.17-5.17A6.59,6.59,0,0,0,280.75,284.19Z" style="fill:#fff;opacity:0.6000000000000001"></path><polygon points="297.44 315.64 345.99 315.64 321.71 285.73 297.44 315.64" style="fill:#232745"></polygon><polygon points="297.44 315.64 345.99 315.64 321.71 285.73 297.44 315.64" style="opacity:0.4"></polygon><polygon points="273.54 315.67 316.59 315.67 295.07 296.19 273.54 315.67" style="fill:#232745"></polygon><polygon points="273.54 315.67 316.59 315.67 295.07 296.19 273.54 315.67" style="opacity:0.30000000000000004"></polygon><rect x="273.54" y="315.64" width="72.45" height="29.25" style="opacity:0.1"></rect><path d="M273.54,353.39c4.92-.15,9.84-.22,14.76-.28l14.76-.09,14.76.08c4.92.06,9.85.14,14.77.29-4.92.16-9.85.23-14.77.29l-14.76.09-14.76-.09C283.38,353.62,278.46,353.55,273.54,353.39Z" style="fill:#c7c7c7"></path><path d="M273.54,359.52c3.7-.16,7.39-.23,11.09-.29s7.39-.05,11.09-.08l11.09.08c3.7.06,7.39.13,11.09.29-3.7.16-7.39.23-11.09.29l-11.09.08c-3.7,0-7.39,0-11.09-.08S277.24,359.67,273.54,359.52Z" style="fill:#c7c7c7"></path><path d="M540.84,345.27H540v-.75h.07v-2.18h.75Zm-3.82,0h-3v-.75h3Zm-6,0h-3v-.75h3Zm-6,0h-3v-.75h3Zm-6,0h-3v-.75h3Zm-6,0h-3v-.75h3Zm-6,0h-3v-.75h3Zm-6,0h-3v-.75h3Zm-6,0h-3v-.75h3Zm-6,0h-3v-.75h3Zm-6,0h-3v-.75h3Zm-6,0h-3v-.75h3Zm-6,0h-3v-.75h3Zm-2.63-1.08h-.75v-3h.75Zm72.45-4.85h-.75v-3h.75Zm-72.45-1.15h-.75v-3h.75Zm72.45-4.85h-.75v-3h.75Zm-72.45-1.15h-.75v-3h.75Zm72.45-4.85h-.75v-3h.75Zm-72.45-1.15h-.75v-3h.75Zm72.45-4.85h-.75v-3h.75Zm-72.45-1.15h-.75v-3h.75Zm72.45-4.85h-.75v-3h.75Zm-72.45-1.15h-.75v-3h.75Zm72.45-4.85h-.75v-3h.75Zm-72.45-1.15h-.75v-3h.75Zm72.45-4.85h-.75v-3h.75Zm-72.45-1.15h-.75v-3h.75Zm72.45-4.85h-.75v-3h.75Zm-72.45-1.15h-.75v-3h.75Zm72.45-4.85h-.75v-3h.75Zm-72.45-1.15h-.75v-3h.75Zm72.45-4.85h-.75v-3h.75Zm-72.45-1.15h-.75v-3h.75Zm72.45-4.85h-.75v-3h.75Zm-72.45-1.15h-.75v-3h.75Zm72.45-4.85h-.75v-3h.75Zm-72.45-1.15h-.75v-3h.75Zm72.45-4.85h-.75v-3h.75Zm-72.45-1.15h-.75v-3h.75Zm72.45-4.85h-.75v-1.47h-.78v-.75h1.53Zm-72.45-1.15h-.75v-1.07h2.67v.75h-1.92Zm67.92-.32h-3v-.75h3Zm-6,0h-3v-.75h3Zm-6,0h-3v-.75h3Zm-6,0h-3v-.75h3Zm-6,0h-3v-.75h3Zm-6,0h-3v-.75h3Zm-6,0h-3v-.75h3Zm-6,0h-3v-.75h3Zm-6,0h-3v-.75h3Zm-6,0h-3v-.75h3Zm-6,0h-3v-.75h3Z" style="fill:#c7c7c7"></path><path d="M468,353.39c4.92-.15,9.84-.22,14.76-.28l14.76-.09,14.76.08c4.92.06,9.84.14,14.76.29-4.92.16-9.84.23-14.76.29l-14.76.09-14.76-.09C477.86,353.62,472.94,353.55,468,353.39Z" style="fill:#c7c7c7"></path><path d="M468,359.52c3.69-.16,7.39-.23,11.09-.29s7.39-.05,11.09-.08l11.09.08c3.69.06,7.39.13,11.09.29-3.7.16-7.4.23-11.09.29l-11.09.08c-3.7,0-7.4,0-11.09-.08S471.71,359.67,468,359.52Z" style="fill:#c7c7c7"></path><path d="M467.57,245.7c4.92-.15,9.84-.23,14.76-.29l14.76-.08,14.77.08c4.92.06,9.84.13,14.76.29-4.92.16-9.84.23-14.76.29l-14.77.08L482.33,246C477.41,245.93,472.49,245.85,467.57,245.7Z" style="fill:#c7c7c7"></path><path d="M467.57,251.83c3.7-.16,7.39-.23,11.09-.29s7.39-.06,11.09-.09l11.09.09c3.7.06,7.39.13,11.09.29-3.7.15-7.39.22-11.09.29l-11.09.08c-3.7,0-7.39,0-11.09-.09S471.27,252,467.57,251.83Z" style="fill:#c7c7c7"></path><rect x="191.53" y="205.93" width="39.13" height="5.17" style="fill:#37474f"></rect><rect x="191.53" y="213.91" width="33.56" height="2.41" style="fill:#455a64"></rect><path d="M202.91,225.44c3.69-.16,7.39-.23,11.09-.29s7.39-.06,11.08-.09l11.09.09c3.7.06,7.4.13,11.09.29-3.69.15-7.39.23-11.09.29l-11.09.08c-3.69,0-7.39,0-11.08-.08S206.6,225.59,202.91,225.44Z" style="fill:#c7c7c7"></path><path d="M202.91,231.57c3.69-.16,7.39-.23,11.09-.29s7.39-.06,11.08-.09l11.09.09c3.7.06,7.4.13,11.09.29-3.69.15-7.39.22-11.09.28l-11.09.09c-3.69,0-7.39,0-11.08-.09S206.6,231.72,202.91,231.57Z" style="fill:#c7c7c7"></path><path d="M202.91,237.69c3.69-.15,7.39-.23,11.09-.29s7.39-.05,11.08-.08l11.09.08c3.7.06,7.4.14,11.09.29-3.69.16-7.39.23-11.09.29l-11.09.09c-3.69,0-7.39,0-11.08-.09S206.6,237.85,202.91,237.69Z" style="fill:#c7c7c7"></path><path d="M202.91,243.82c3.69-.16,7.39-.23,11.09-.29s7.39-.05,11.08-.09l11.09.09c3.7.06,7.4.13,11.09.29-3.69.15-7.39.23-11.09.29l-11.09.08c-3.69,0-7.39,0-11.08-.08S206.6,244,202.91,243.82Z" style="fill:#c7c7c7"></path><path d="M202.91,256.07c3.69-.15,7.39-.22,11.09-.28s7.39-.06,11.08-.09l11.09.08c3.7.06,7.4.14,11.09.29-3.69.16-7.39.23-11.09.29l-11.09.09c-3.69,0-7.39,0-11.08-.09S206.6,256.23,202.91,256.07Z" style="fill:#c7c7c7"></path><path d="M202.91,262.2c3.69-.16,7.39-.23,11.09-.29s7.39-.05,11.08-.09l11.09.09c3.7.06,7.4.13,11.09.29-3.69.15-7.39.23-11.09.29l-11.09.08c-3.69,0-7.39,0-11.08-.08S206.6,262.35,202.91,262.2Z" style="fill:#c7c7c7"></path><path d="M202.91,268.33c3.69-.16,7.39-.23,11.09-.29s7.39-.06,11.08-.09l11.09.09c3.7.06,7.4.13,11.09.29-3.69.15-7.39.22-11.09.28l-11.09.09c-3.69,0-7.39,0-11.08-.09S206.6,268.48,202.91,268.33Z" style="fill:#c7c7c7"></path><path d="M202.91,280.58c3.69-.16,7.39-.23,11.09-.29s7.39-.05,11.08-.09l11.09.09c3.7.06,7.4.13,11.09.29-3.69.16-7.39.23-11.09.29l-11.09.08c-3.69,0-7.39,0-11.08-.08S206.6,280.73,202.91,280.58Z" style="fill:#c7c7c7"></path><path d="M202.91,286.71c3.69-.16,7.39-.23,11.09-.29s7.39-.06,11.08-.09l11.09.09c3.7.06,7.4.13,11.09.29-3.69.15-7.39.22-11.09.28l-11.09.09c-3.69,0-7.39,0-11.08-.09S206.6,286.86,202.91,286.71Z" style="fill:#c7c7c7"></path><path d="M202.91,292.83c3.69-.15,7.39-.22,11.09-.28s7.39-.06,11.08-.09l11.09.08c3.7.06,7.4.14,11.09.29-3.69.16-7.39.23-11.09.29l-11.09.09c-3.69,0-7.39,0-11.08-.09S206.6,293,202.91,292.83Z" style="fill:#c7c7c7"></path><path d="M191.53,299.17c3.69-.15,7.39-.22,11.09-.28s7.39-.06,11.09-.09l11.09.08c3.69.06,7.39.14,11.09.29-3.7.16-7.4.23-11.09.29l-11.09.09c-3.7,0-7.4,0-11.09-.09S195.22,299.33,191.53,299.17Z" style="fill:#c7c7c7"></path><path d="M191.53,323.48c3.69-.16,7.39-.23,11.09-.29s7.39-.06,11.09-.09l11.09.09c3.69.06,7.39.13,11.09.29-3.7.15-7.4.22-11.09.28l-11.09.09c-3.7,0-7.4,0-11.09-.09S195.22,323.63,191.53,323.48Z" style="fill:#c7c7c7"></path><path d="M191.53,327.3c3-.15,5.94-.23,8.91-.29s5.94-.05,8.91-.08,5.94,0,8.91.08,5.94.13,8.91.29c-3,.16-5.94.23-8.91.29s-5.94.06-8.91.08-5.94,0-8.91-.08S194.5,327.45,191.53,327.3Z" style="fill:#c7c7c7"></path><path d="M200.2,309.3v6.21a.05.05,0,0,0,0,0,1.53,1.53,0,0,1-1.11,1.24l-.17,0h-1.7a.31.31,0,0,0,0-.1v-3.24h1.37s.08,0,.08-.08v-1.32a.22.22,0,0,0,0-.08h-1.43c0-.24,0-.46,0-.69a.32.32,0,0,1,.34-.3h1.09v-1.47h-1.12a1.49,1.49,0,0,0-.87.27,1.88,1.88,0,0,0-.77,1.29c0,.27,0,.54,0,.81V312h-1.05a.43.43,0,0,1,0,.05v1.37c0,.06,0,.06.07.06h1v3.34H192.8a1.38,1.38,0,0,1-.57-.22,1.49,1.49,0,0,1-.64-.85l-.06-.24v-6.24a1.4,1.4,0,0,1,.21-.57,1.47,1.47,0,0,1,.83-.66,1.05,1.05,0,0,1,.24-.06h6.12a1.53,1.53,0,0,1,1.22,1.14Z" style="fill:#232745"></path><path d="M215.05,308h-6a1.33,1.33,0,0,0-1.33,1.35v6.15a1.33,1.33,0,0,0,1.33,1.35h6a1.33,1.33,0,0,0,1.32-1.35v-6.15A1.33,1.33,0,0,0,215.05,308Zm.41,2.24s0,0,0,.08a2.5,2.5,0,0,1-.58.59.17.17,0,0,0-.06.15,4.15,4.15,0,0,1-.48,2,3.83,3.83,0,0,1-2.53,2.05,4.08,4.08,0,0,1-2.37-.1l-.1,0-.4-.2-.29-.17a3,3,0,0,0,2-.61l-.29-.06a1.41,1.41,0,0,1-1-.86.12.12,0,0,1,0-.08s0,0,.08,0a1.23,1.23,0,0,0,.5,0,.52.52,0,0,0-.19-.08,1.44,1.44,0,0,1-.91-1.23c0-.13,0-.13.11-.08a1.47,1.47,0,0,0,.52.12,1.57,1.57,0,0,1-.34-.34,1.44,1.44,0,0,1-.13-1.52c0-.06,0-.08.1,0a3.92,3.92,0,0,0,2.35,1.39c.13,0,.27,0,.41.06s.11,0,.09-.1a1.43,1.43,0,0,1,1.19-1.66,1.31,1.31,0,0,1,1.18.38s.08.06.14,0a3.68,3.68,0,0,0,.66-.23.45.45,0,0,0,.13-.11.88.88,0,0,1-.2.46,2.26,2.26,0,0,1-.35.34,3.33,3.33,0,0,0,.75-.2Z" style="fill:#232745"></path><path d="M232.52,312.3c0-.71,0-1.42,0-2.14a4.49,4.49,0,0,0,0-.51,1.84,1.84,0,0,0-1.2-1.54,2.86,2.86,0,0,0-1-.13h-4.06c-.22,0-.45,0-.66,0A1.83,1.83,0,0,0,224,309.2a2.9,2.9,0,0,0-.14,1c0,1.44,0,2.88,0,4.32a5.49,5.49,0,0,0,.05.7,1.8,1.8,0,0,0,1,1.35,2.41,2.41,0,0,0,1.09.21h4.31a2.78,2.78,0,0,0,.64-.06,1.75,1.75,0,0,0,1.4-1.17,2.72,2.72,0,0,0,.15-1V312.3Zm-1.11,1.3a2,2,0,0,1-1.6,2,1.87,1.87,0,0,1-.42,0H227a2,2,0,0,1-2-1.64,2.85,2.85,0,0,1,0-.41v-2.45a2,2,0,0,1,1.52-2,2.22,2.22,0,0,1,.51-.06h1.18c.46,0,.91,0,1.37,0a2,2,0,0,1,1.78,1.58,1.83,1.83,0,0,1,0,.47Z" style="fill:#232745"></path><path d="M229.25,312.4a1,1,0,1,1-1-1.07A1,1,0,0,1,229.25,312.4Z" style="fill:#232745"></path><path d="M229.42,309.68H227a1.45,1.45,0,0,0-1.44,1.47v2.49A1.45,1.45,0,0,0,227,315.1h2.44a1.44,1.44,0,0,0,1.43-1.46v-2.49A1.43,1.43,0,0,0,229.42,309.68ZM228.2,314a1.63,1.63,0,1,1,1.6-1.63A1.62,1.62,0,0,1,228.2,314Zm1.75-3a.4.4,0,0,1-.39-.41.4.4,0,1,1,.39.41Z" style="fill:#232745"></path><path d="M253.17,146a12.13,12.13,0,0,1-2.08-6.71c0-8.5,9.34-15.39,20.85-15.39s20.84,6.89,20.84,15.39-9.33,15.4-20.84,15.4a25.06,25.06,0,0,1-14.38-4.26l-7.18,1.83Z" style="fill:#fff"></path><path d="M263.68,136.45v5.75H263v-2.62h-3.17v2.62h-.73v-5.75h.73v2.48H263v-2.48Z"></path><path d="M269,141.55v.65h-3.9v-5.75h3.83v.64h-3.11V139h2.7v.6h-2.7v2Z"></path><path d="M270,142.2v-5.75h.72v5.1h3.21v.65Z"></path><path d="M274.69,142.2v-5.75h.73v5.1h3.2v.65Z"></path><path d="M281.57,142.24a2.37,2.37,0,0,1-1.1-.25,2.54,2.54,0,0,1-.86-.66,2.9,2.9,0,0,1-.55-.93,3.07,3.07,0,0,1-.19-1.08,3,3,0,0,1,.77-2,2.8,2.8,0,0,1,.87-.65,2.44,2.44,0,0,1,1.08-.23,2.37,2.37,0,0,1,1.1.25,2.77,2.77,0,0,1,.85.67,3,3,0,0,1,.55.93,3.07,3.07,0,0,1,.2,1.07,3,3,0,0,1-.21,1.1,3.14,3.14,0,0,1-.57.93,2.62,2.62,0,0,1-.86.64A2.44,2.44,0,0,1,281.57,142.24Zm-2-2.92a2.45,2.45,0,0,0,.15.85,2.12,2.12,0,0,0,.4.72,2,2,0,0,0,.62.51,1.79,1.79,0,0,0,.81.18,1.65,1.65,0,0,0,.83-.2,1.94,1.94,0,0,0,.62-.52,2.07,2.07,0,0,0,.38-.72,2.57,2.57,0,0,0,.14-.82,2.75,2.75,0,0,0-.14-.85,2.32,2.32,0,0,0-.41-.72,2,2,0,0,0-.62-.49,1.66,1.66,0,0,0-.8-.19,1.75,1.75,0,0,0-.83.19,2,2,0,0,0-.62.51,2.33,2.33,0,0,0-.39.73A2.57,2.57,0,0,0,279.6,139.32Z"></path><path d="M285.31,140.25v-3.86H286v3.86Zm0,1.95v-1H286v1Z"></path></g><g id="freepik--Folders--inject-7"><rect x="376.37" y="311.64" width="103.42" height="74.97" style="fill:#232745"></rect><polygon points="412.91 303.88 376.37 303.88 376.37 311.64 415.01 311.64 412.91 303.88" style="fill:#232745"></polygon><g style="opacity:0.1"><rect x="376.37" y="311.64" width="103.42" height="74.97"></rect><polygon points="412.91 303.88 376.37 303.88 376.37 311.64 415.01 311.64 412.91 303.88"></polygon></g><path d="M478.9,265.21a3.64,3.64,0,0,1,0-3.68,3.26,3.26,0,0,1,.5,1.84A3.46,3.46,0,0,1,478.9,265.21Z" style="fill:#263238"></path><path d="M475.15,266.29a3.31,3.31,0,0,1-1.35-1.35,3.27,3.27,0,0,1-.49-1.84,3.31,3.31,0,0,1,1.35,1.35A3.44,3.44,0,0,1,475.15,266.29Z" style="fill:#263238"></path><path d="M472.44,269.1a3.3,3.3,0,0,1-1.85-.49,3.35,3.35,0,0,1-1.34-1.35,3.25,3.25,0,0,1,1.84.49A3.37,3.37,0,0,1,472.44,269.1Z" style="fill:#263238"></path><path d="M471.5,272.89a3.39,3.39,0,0,1-1.84.5,3.35,3.35,0,0,1-1.84-.5,3.26,3.26,0,0,1,1.84-.5A3.46,3.46,0,0,1,471.5,272.89Z" style="fill:#263238"></path><path d="M472.58,276.64a3.46,3.46,0,0,1-1.35,1.36,3.35,3.35,0,0,1-1.84.48,3.35,3.35,0,0,1,1.34-1.35A3.47,3.47,0,0,1,472.58,276.64Z" style="fill:#263238"></path><path d="M475.39,279.35a3.38,3.38,0,0,1-.49,1.85,3.35,3.35,0,0,1-1.35,1.34,3.25,3.25,0,0,1,.49-1.84A3.37,3.37,0,0,1,475.39,279.35Z" style="fill:#263238"></path><path d="M479.18,280.29a3.65,3.65,0,0,1,0,3.69,3.32,3.32,0,0,1-.5-1.85A3.48,3.48,0,0,1,479.18,280.29Z" style="fill:#263238"></path><path d="M482.93,279.21a3.46,3.46,0,0,1,1.36,1.35,3.35,3.35,0,0,1,.48,1.84,3.35,3.35,0,0,1-1.35-1.34A3.47,3.47,0,0,1,482.93,279.21Z" style="fill:#263238"></path><path d="M485.64,276.4a3.47,3.47,0,0,1,1.85.49,3.35,3.35,0,0,1,1.34,1.35,3.25,3.25,0,0,1-1.84-.49A3.37,3.37,0,0,1,485.64,276.4Z" style="fill:#263238"></path><path d="M486.58,272.61a3.65,3.65,0,0,1,3.69,0,3.32,3.32,0,0,1-1.85.5A3.46,3.46,0,0,1,486.58,272.61Z" style="fill:#263238"></path><path d="M485.5,268.86a3.37,3.37,0,0,1,1.35-1.35,3.27,3.27,0,0,1,1.84-.49,3.35,3.35,0,0,1-1.34,1.35A3.47,3.47,0,0,1,485.5,268.86Z" style="fill:#263238"></path><path d="M482.69,266.15a3.67,3.67,0,0,1,1.84-3.19,3.3,3.3,0,0,1-.49,1.85A3.35,3.35,0,0,1,482.69,266.15Z" style="fill:#263238"></path><rect x="406.78" y="272.75" width="72.45" height="55.58" transform="translate(886.01 601.09) rotate(180)" style="fill:#ebebeb"></rect><path d="M414,284.91a6.58,6.58,0,1,0,5.17-5.17A6.59,6.59,0,0,0,414,284.91Z" style="fill:#fff;opacity:0.6000000000000001"></path><polygon points="430.68 316.36 479.23 316.36 454.95 286.44 430.68 316.36" style="fill:#c7c7c7"></polygon><polygon points="406.78 316.39 449.83 316.39 428.31 296.91 406.78 316.39" style="fill:#dbdbdb"></polygon><rect x="406.78" y="316.36" width="72.45" height="11.98" style="fill:#dbdbdb"></rect><rect x="439.79" y="305.28" width="72.45" height="85.4" transform="translate(128.03 823.99) rotate(-90)" style="fill:#455a64"></rect><path d="M494,319a6.58,6.58,0,1,0,5.16,5.17A6.59,6.59,0,0,0,494,319Z" style="fill:#fff;opacity:0.6000000000000001"></path><polygon points="462.56 335.66 462.56 384.21 492.48 359.93 462.56 335.66" style="fill:#263238"></polygon><polygon points="462.54 311.76 462.54 354.81 482.02 333.29 462.54 311.76" style="fill:#37474f"></polygon><rect x="411.71" y="333.36" width="72.45" height="29.25" transform="translate(795.92 -99.95) rotate(90)" style="fill:#37474f"></rect><rect x="390.8" y="291.78" width="72.45" height="85.4" transform="translate(854.04 668.96) rotate(180)" style="fill:#232745"></rect><rect x="390.8" y="291.78" width="72.45" height="85.4" transform="translate(854.04 668.96) rotate(180)" style="opacity:0.2"></rect><path d="M398,316.48a6.58,6.58,0,1,0,5.16-5.17A6.58,6.58,0,0,0,398,316.48Z" style="fill:#fff;opacity:0.6000000000000001"></path><polygon points="414.7 347.93 463.24 347.93 438.97 318.01 414.7 347.93" style="fill:#232745"></polygon><polygon points="414.7 347.93 463.24 347.93 438.97 318.01 414.7 347.93" style="opacity:0.4"></polygon><polygon points="390.8 347.96 433.85 347.96 412.32 328.48 390.8 347.96" style="fill:#232745"></polygon><polygon points="390.8 347.96 433.85 347.96 412.32 328.48 390.8 347.96" style="opacity:0.30000000000000004"></polygon><rect x="390.8" y="347.93" width="72.45" height="29.25" style="opacity:0.1"></rect><polygon points="479.52 386.61 376.1 386.61 368.12 317.86 471.54 317.86 479.52 386.61" style="fill:#232745"></polygon><polygon points="403.84 310.74 367.29 310.74 368.12 317.86 406.76 317.86 403.84 310.74" style="fill:#232745"></polygon></g><g id="freepik--character-2--inject-7"><circle cx="219.29" cy="162.73" r="27.98" transform="translate(-50.84 202.72) rotate(-45)" style="fill:#455a64"></circle><path d="M223.3,177.15l-.08.13-.74,1.24c-.88,1.46-2.36,3.94-4,6.7L217,187.69l-.18.29-1.45,2.45a27.19,27.19,0,0,1-7.57-2.19c-.26-.1-.51-.22-.77-.35-.43-.21-.86-.43-1.28-.66l-.31-.19a.4.4,0,0,1-.15-.09h0a.61.61,0,0,0-.07.1.61.61,0,0,0,.07-.1c-.16-.08-.32-.18-.48-.28a28.1,28.1,0,0,1-7.77-7,10.31,10.31,0,0,1,2.52-2.66c3.15-2.11,9-2.61,14.32-2.13a39.81,39.81,0,0,1,4,.55A20.18,20.18,0,0,1,223.3,177.15Z" style="fill:#c7c7c7"></path><path d="M231.85,187.73a27.63,27.63,0,0,1-12.31,3h-.7a24.74,24.74,0,0,1-3.47-.27,27.19,27.19,0,0,1-7.57-2.19c-.26-.1-.51-.22-.77-.35-.43-.21-.86-.43-1.28-.66l-.31-.19c.73-1,1.53-2.12,2.42-3.21a60.08,60.08,0,0,1,5.37-5.7,4.56,4.56,0,0,1,.65-.51,8.4,8.4,0,0,1,5-1.17,15,15,0,0,1,4.34.83,12.87,12.87,0,0,1,3.18,1.54,6.86,6.86,0,0,1,1.53,1.37l.16.2A35.24,35.24,0,0,1,231.85,187.73Z" style="fill:#c7c7c7"></path><path d="M208.28,183.15c-.14.23-.27.45-.42.68-.69,1.14-1.4,2.27-2.11,3.4l-.31-.19a.4.4,0,0,1-.15-.09C206.25,185.65,207.23,184.38,208.28,183.15Z" style="fill:#263238"></path><path d="M205.9,184.33a7.37,7.37,0,0,1-.46,2.15c-.06.15-.11.31-.18.46-.16-.08-.32-.18-.48-.28,0-.13.09-.25.13-.38A7.8,7.8,0,0,1,205.9,184.33Z" style="fill:#263238"></path><path d="M218.84,190.7a24.74,24.74,0,0,1-3.47-.27,27.19,27.19,0,0,1-7.57-2.19c1.71-3,5.19-4.56,9-.26a15.15,15.15,0,0,1,1.22,1.56Z" style="fill:#d3766a"></path><path d="M219.54,190.7h-.7a24.74,24.74,0,0,1-3.47-.27,27.19,27.19,0,0,1-7.57-2.19c-.26-.1-.51-.22-.77-.35,1.33-4.38,4.83-5.54,10-.2A32.61,32.61,0,0,1,219.54,190.7Z" style="fill:#c7c7c7"></path><path d="M225.38,188.15c-2.56.5-8.64-3.51-11.34-7.25-.18-.26-.12-3.21-.21-6.81-.07-2.18-.19-4.6-.47-6.81-.06-.45,1.59.19,1.59.19l2.94.33,9.73,1.12a35.43,35.43,0,0,0-.29,8.64,5.53,5.53,0,0,0,.21.89,1.55,1.55,0,0,1,0,.15C228.07,180.29,229.38,187.37,225.38,188.15Z" style="fill:#d3766a"></path><path d="M227.54,178.45a1.55,1.55,0,0,1,0,.15,8.25,8.25,0,0,1-1.41.25c-9.35,1-12-10.75-12-10.75l3.7-.3,9.73,1.12a35.43,35.43,0,0,0-.29,8.64A5.53,5.53,0,0,0,227.54,178.45Z" style="fill:#263238"></path><path d="M210.79,148.61c-1.5,4.95,1.15,19.22,4.68,22.4,5.11,4.6,13.45,5,17.36-1.11,3.79-6,0-24.5-3.93-27.38C223.11,138.27,213,141.3,210.79,148.61Z" style="fill:#d3766a"></path><path d="M223.77,156.93s-.06.06-.05.1c.25.95.37,2.07-.42,2.59,0,0,0,.06,0,0C224.34,159.28,224.16,157.79,223.77,156.93Z" style="fill:#263238"></path><path d="M222.7,156.13c-1.56.23-1,3.33.46,3.12S224,155.93,222.7,156.13Z" style="fill:#263238"></path><path d="M229.48,155.71s.08,0,.09.07c.15,1,.48,2.05,1.41,2.21a0,0,0,0,1,0,0C229.89,158.09,229.46,156.65,229.48,155.71Z" style="fill:#263238"></path><path d="M230.15,154.54c1.53-.4,2.22,2.68.81,3.05S228.87,154.88,230.15,154.54Z" style="fill:#263238"></path><path d="M221.21,154.93a12.43,12.43,0,0,0,1.12-.64,2,2,0,0,0,1-.88.64.64,0,0,0-.25-.77,1.65,1.65,0,0,0-1.67.13,2.46,2.46,0,0,0-1.19,1.29A.71.71,0,0,0,221.21,154.93Z" style="fill:#263238"></path><path d="M231,153.13a11.18,11.18,0,0,1-1.29-.09,2.09,2.09,0,0,1-1.3-.34.67.67,0,0,1-.11-.81,1.65,1.65,0,0,1,1.56-.61,2.46,2.46,0,0,1,1.63.65A.71.71,0,0,1,231,153.13Z" style="fill:#263238"></path><path d="M224.59,166.05c.27.18.56.45.92.41a2.54,2.54,0,0,0,1-.43,0,0,0,0,1,.06,0,1.36,1.36,0,0,1-1.13.75,1.06,1.06,0,0,1-.91-.71C224.48,166.05,224.55,166,224.59,166.05Z" style="fill:#263238"></path><path d="M225.07,163a3.36,3.36,0,0,0,2.46,1.05,4,4,0,0,0,1.18-.16,1.14,1.14,0,0,0,.22-.07l.21-.07a.24.24,0,0,0,.15-.25h0a.54.54,0,0,0,0-.1h0l0-.09c-.11-.74-.39-1.85-.39-1.85.29.08,1.79.45,1.69.06a50,50,0,0,0-3.1-9.67.09.09,0,0,0-.17.06c.63,3.07,1.8,6,2.48,9.09a5.61,5.61,0,0,0-1.63-.18c-.1,0,.58,2.14.61,2.47v0a4.63,4.63,0,0,1-3.59-.42C225.06,162.83,225,162.91,225.07,163Z" style="fill:#263238"></path><path d="M228.21,163.57a4,4,0,0,1-1.34,1.5,1.74,1.74,0,0,1-1,.26c-.81-.06-1-.76-.93-1.39a4.21,4.21,0,0,1,.17-1A5.15,5.15,0,0,0,228.21,163.57Z" style="fill:#263238"></path><path d="M226.87,165.07a1.74,1.74,0,0,1-1,.26c-.81-.06-1-.76-.93-1.39A1.82,1.82,0,0,1,226.87,165.07Z" style="fill:#ff9bbc"></path><path d="M211.48,162.32c2.6-1.06,3-10.22,3-10.22s.4,3.82,1.1,3.65,3.07-5.68,3-9.43a29.38,29.38,0,0,0,7.17,2.57c3.51.64,7.24,0,7.18-.58-.19-1.72-2.25-6.05-4.76-7.38a12.22,12.22,0,0,0-12.26-.15c-5.31,2.74-6.38,6.47-6.89,9.32S210.52,162.71,211.48,162.32Z" style="fill:#263238"></path><path d="M226.71,156.73h0a2.78,2.78,0,0,0-.12-.38,2,2,0,0,0-.11-.26,4.58,4.58,0,0,0-5.77-2.49,2.52,2.52,0,0,0-.29.12,4.59,4.59,0,0,0-2.73,3.85,4.14,4.14,0,0,0,0,.61,4.29,4.29,0,0,0,.26,1.3,4.61,4.61,0,0,0,4.77,3,4.81,4.81,0,0,0,1.11-.25,4.59,4.59,0,0,0,3-4.33A4.27,4.27,0,0,0,226.71,156.73Zm-3.08,4.92a4,4,0,0,1-3.4-7.16,3.66,3.66,0,0,1,.69-.33,4.13,4.13,0,0,1,1-.21,4,4,0,0,1,4.13,2.6A4,4,0,0,1,223.63,161.65Z" style="fill:#232745"></path><path d="M235.67,154.91A5.54,5.54,0,0,0,234,152a3.56,3.56,0,0,0-1.06-.67,2.7,2.7,0,0,0-1.63-.16,2.23,2.23,0,0,0-.7.28h0a3.23,3.23,0,0,0-1.38,1.58s0,0,0,0a5,5,0,0,0-.39,2.33h0v0a3.25,3.25,0,0,0,.08.69,2.93,2.93,0,0,0,.05.29,5.85,5.85,0,0,0,.68,1.74h0a3.65,3.65,0,0,0,3.33,2.06l.3-.05a2.61,2.61,0,0,0,1-.46A4.68,4.68,0,0,0,235.67,154.91Zm-1.42,4a2.08,2.08,0,0,1-1.07.62,3,3,0,0,1-3-1.83s0,0,0,0a3.22,3.22,0,0,1-.31-.68.09.09,0,0,1,0-.07,5,5,0,0,1-.2-.69,5.34,5.34,0,0,1-.09-.53.62.62,0,0,1,0-.13v-.07a4.71,4.71,0,0,1,.32-2.24,2.12,2.12,0,0,1,.11-.21,2.42,2.42,0,0,1,1.41-1.27h0l.14,0,.23,0a2.27,2.27,0,0,1,1.46.38,2.87,2.87,0,0,1,.46.34,4.86,4.86,0,0,1,1.44,2.61A4.28,4.28,0,0,1,234.25,158.91Z" style="fill:#232745"></path><path d="M226.55,156.9l-.48-.38c.55-.72,2-1.83,3.31-.9l-.35.51C227.82,155.29,226.61,156.83,226.55,156.9Z" style="fill:#232745"></path><path d="M206.81,162.41l-.6-.16c.08-.27.77-2.71,2.06-3.22s9.42-1.48,9.76-1.52l.08.61c-2.36.29-8.68,1.11-9.62,1.48S207,161.74,206.81,162.41Z" style="fill:#232745"></path><path d="M213.87,160.24s-3.33-4.54-5.4-3.34.51,7.83,3,8.69a2.5,2.5,0,0,0,3.32-1.42Z" style="fill:#d3766a"></path><path d="M209.26,158.78s0,.05,0,.07a6.31,6.31,0,0,1,3.35,3.88,1.37,1.37,0,0,0-2.07-.33s0,.1.05.09a1.52,1.52,0,0,1,1.7.5,7.5,7.5,0,0,1,.85,1.35c.08.15.36.06.29-.11v0C213.4,162,211.62,159,209.26,158.78Z" style="fill:#263238"></path><path d="M225.05,140.05a21,21,0,0,0-5.84-1.73c-2.26-.29-9.39.27-11.1,1.7s-2.16,8.15-2.21,9.13.4,6.93,2.56,8.36,2.35-8.66,5.74-12S225.05,140.05,225.05,140.05Z" style="fill:#232745"></path><path d="M225.05,140.05s-7.45,2.1-10.84,5.45-3.6,13.44-5.76,12a4.79,4.79,0,0,1-1.8-3.15c.45-2.94,1.64-7.52,4.1-10.69,2.3-3,6.26-4.48,10.5-5A23.35,23.35,0,0,1,225.05,140.05Z" style="opacity:0.1"></path><path d="M209.05,163.5c.19-2.69,2.92-9.89,5.79-14s11.3-6.55,12.48-6.48c2.86.16,3.83,1,4.28.77s-2.49-2.4-3.3-2.89-3-1.61-4.22-1.58-8.92.8-11.7,4.07-6.73,12.45-6,14.8c.18.56.93.92,1.17,1.72.31,1.05.53,2.26.85,3S209,163.74,209.05,163.5Z" style="fill:#232745"></path><path d="M215.49,147.63a13.7,13.7,0,0,1-1.86-1.37,9.8,9.8,0,0,1-1.59-1.69s-.11,0-.08,0a7.71,7.71,0,0,0,1.45,1.91,6.3,6.3,0,0,0,2,1.24C215.51,147.8,215.57,147.67,215.49,147.63Z" style="fill:#263238"></path><path d="M209,160.82a5.93,5.93,0,0,0-.29-.56,3.12,3.12,0,0,1-.26-.66,5.92,5.92,0,0,0-.3-1.31,5.1,5.1,0,0,0-.63-.89,1.74,1.74,0,0,1-.53-1.09c0-.06-.09-.06-.09,0a4.41,4.41,0,0,0,.9,2.08,8.49,8.49,0,0,1,.37,1.4,2.11,2.11,0,0,0,.71,1.12C209,160.94,209.05,160.88,209,160.82Z" style="fill:#263238"></path><path d="M210,157.91c-.26-.31-.53-.58-.76-.91a7.77,7.77,0,0,1-.58-1c-.17-.34-.31-.69-.47-1s-.44-.79-.61-1.21c0-.05-.1,0-.08,0,.18.43.28.9.45,1.33a8.46,8.46,0,0,0,.51,1.1,6.26,6.26,0,0,0,.64,1,2.93,2.93,0,0,0,.87.77S210,157.93,210,157.91Z" style="fill:#263238"></path><path d="M210.92,155.28a7.65,7.65,0,0,1-1.46-1.65c-.39-.61-.75-1.24-1.1-1.87,0,0-.1,0-.08,0a8.54,8.54,0,0,0,.93,2,4.7,4.7,0,0,0,.68.85,4.93,4.93,0,0,0,1,.67S211,155.31,210.92,155.28Z" style="fill:#263238"></path><path d="M212,152.76a2.6,2.6,0,0,1-.72-.72c-.23-.3-.46-.61-.67-.92s-.43-.6-.63-.9a2.63,2.63,0,0,1-.49-1s-.09,0-.08,0a2.56,2.56,0,0,0,.31,1,6.61,6.61,0,0,0,.61,1.06,9.53,9.53,0,0,0,.75.93,1.64,1.64,0,0,0,.87.59A.06.06,0,0,0,212,152.76Z" style="fill:#263238"></path><path d="M212.75,149.57c-.25-.25-.49-.49-.72-.76s-.45-.53-.66-.81-.45-.58-.65-.88a0,0,0,1,0-.08,0,7.35,7.35,0,0,0,.49,1,9.37,9.37,0,0,0,.65.87,9,9,0,0,0,.74.77,2.79,2.79,0,0,0,.88.61.06.06,0,0,0,.07-.09A5,5,0,0,0,212.75,149.57Z" style="fill:#263238"></path><path d="M217.56,146.1c-.27-.33-.53-.66-.82-1s-.63-.6-1-.87a11.27,11.27,0,0,0-2.09-1.41s-.1,0-.06.07c1.28,1.09,2.6,2.13,3.86,3.23C217.53,146.2,217.59,146.14,217.56,146.1Z" style="fill:#263238"></path><path d="M219.18,143.79a5.69,5.69,0,0,0-.91-.86,12.12,12.12,0,0,0-2.31-1.28,0,0,0,0,0-.05.07c.7.47,1.41.92,2.08,1.42a10.32,10.32,0,0,1,1,.79c.3.28.54.62.83.92a0,0,0,0,0,.05,0A3.1,3.1,0,0,0,219.18,143.79Z" style="fill:#263238"></path><path d="M221.42,142.74a6.29,6.29,0,0,0-.84-.87,7.07,7.07,0,0,0-2-1.15c-.05,0-.08.06,0,.08a13.72,13.72,0,0,1,1.86,1.34c.29.25.57.52.84.78s.52.59.82.82c0,0,0,0,0,0A5.54,5.54,0,0,0,221.42,142.74Z" style="fill:#263238"></path><path d="M223,141.39c-.29-.23-.58-.44-.88-.65a3.44,3.44,0,0,0-.93-.53,0,0,0,0,0,0,.08l1.64,1.34a9.39,9.39,0,0,1,1.26,1.48s.06,0,0,0A3.52,3.52,0,0,0,223,141.39Z" style="fill:#263238"></path><path d="M225.06,141a5.61,5.61,0,0,0-1.8-1.12s-.08.06,0,.08a6.77,6.77,0,0,1,1.64,1.23,9.93,9.93,0,0,1,1.29,1.6s.07,0,0,0A4.58,4.58,0,0,0,225.06,141Z" style="fill:#263238"></path><path d="M227.7,142.16a3.3,3.3,0,0,0-.23-.41,5.17,5.17,0,0,0-.6-.73,9.25,9.25,0,0,0-1.53-1.17s-.09,0,0,.07a8.65,8.65,0,0,1,1.43,1.21,5,5,0,0,1,.57.72,3,3,0,0,1,.24.38,2.88,2.88,0,0,0,.22.38,0,0,0,0,0,.08,0A1.1,1.1,0,0,0,227.7,142.16Z" style="fill:#263238"></path><path d="M229.32,142.31a7.68,7.68,0,0,0-.49-.61,7.14,7.14,0,0,0-.56-.54c-.21-.17-.42-.33-.61-.51a0,0,0,1,0-.06.07,5,5,0,0,1,.57.56l.51.57.5.56a6.93,6.93,0,0,0,.5.58s.07,0,.06,0A3.36,3.36,0,0,0,229.32,142.31Z" style="fill:#263238"></path></g><g id="freepik--character-1--inject-7"><path d="M623.09,367.21l15,29.87c2.91,5.69,5.35,10.73,6.37,13.46l0,0a4.43,4.43,0,0,1,.48,2l0,.05c-1.11,2-45.92,26.56-47.77,26.89s-2.94-4.92-2-7.26,13.94-19.42,13.94-19.42l-14.75-30Z" style="fill:#d3766a"></path><path d="M635.05,391l3.09,6.13c2.91,5.69,5.35,10.73,6.37,13.46l0,0a9.2,9.2,0,0,1,.48,2l0,.05c-1.11,2-45.92,26.56-47.77,26.89s-2.94-4.92-2-7.26,13.94-19.42,13.94-19.42L606,406.65Z" style="fill:#fff"></path><path d="M606.42,414.27c2.77-2,6.73-3.4,10.11-2.37.13,0,.07.23,0,.25a47.47,47.47,0,0,0-9.87,2.5A.22.22,0,0,1,606.42,414.27Z" style="fill:#263238"></path><path d="M604.87,416.67c2.77-2.05,6.72-3.4,10.11-2.37.13,0,.07.23,0,.24a47.5,47.5,0,0,0-9.87,2.51A.22.22,0,0,1,604.87,416.67Z" style="fill:#263238"></path><path d="M603.32,419.07c2.77-2.06,6.72-3.41,10.11-2.37.13,0,.07.22,0,.24a47.5,47.5,0,0,0-9.87,2.51A.22.22,0,0,1,603.32,419.07Z" style="fill:#263238"></path><path d="M597.22,439.5c1.85-.33,46.66-24.87,47.77-26.89.44-.76-2.76-7.5-6.85-15.53l-.13-.25-29.09,15.51.28.49s-13,17.07-13.94,19.41S595.36,439.84,597.22,439.5Z" style="fill:#232745"></path><path d="M596.77,437.49c7.45-4.33,37.92-21.06,45.62-24.77.06,0,.08,0,0,0-7.29,4.45-37.89,20.93-45.57,24.84C596.68,437.69,596.61,437.58,596.77,437.49Z" style="fill:#263238"></path><path d="M603.1,404.52c-.36-.17-20.82-38.36-28.16-57S558.23,289,556.4,280.8c0,0-4.82-18.11-6.55-33.52,0,0,39.34,0,39.34,0s5.66,15.89,4.17,38c-.09,1.37,11.68,46.94,15,53,5.1,9.29,27,48.49,27.66,48.83Z" style="fill:#37474f"></path><path d="M564.4,259.39c2.08,9,3.89,18,5.79,27s3.84,18.1,5.75,27.15c.95,4.47,1.86,8.94,2.85,13.39a80.64,80.64,0,0,0,3.87,12.89c1.67,4.12,3.6,8.14,5.49,12.16s3.84,8.08,5.8,12.1q5.92,12.1,12.17,24.05c.51,1,1,2,1.55,2.93a.07.07,0,0,1-.12.07c-4.39-7.83-8.65-15.74-12.71-23.75s-8.05-16-11.68-24.24a75.09,75.09,0,0,1-4.34-12.55c-1.08-4.39-1.93-8.83-2.85-13.26q-2.85-13.65-5.69-27.3c-1.88-9.06-3.78-18.12-5.62-27.18q-.35-1.68-.66-3.36A.21.21,0,0,1,564.4,259.39Z" style="fill:#455a64"></path><path d="M601.91,397.07a79.72,79.72,0,0,1,7-4q3.48-1.91,7-3.78c4.72-2.5,9.41-5.14,14.28-7.34a.1.1,0,0,1,.1.17c-4.48,3-9.3,5.52-14,8.07-2.38,1.29-4.78,2.53-7.19,3.75a69.29,69.29,0,0,1-7.08,3.35C601.87,397.31,601.82,397.14,601.91,397.07Z" style="fill:#455a64"></path><path d="M565.2,389.59s-.28,33.42-.28,33.44c0,6.4-.15,12-.49,14.89a.09.09,0,0,1,0,.05,4.45,4.45,0,0,1-.47,2l0,0c-1.91,1.28-53,2.61-54.79,2.06s-.36-5.72,1.58-7.36S532,423.8,532,423.8l.6-33.41Z" style="fill:#d3766a"></path><path d="M565,416.17s-.06,6.84-.06,6.86c0,6.4-.15,12-.49,14.89a.09.09,0,0,1,0,.05,8.13,8.13,0,0,1-.47,2l0,0c-1.91,1.28-53,2.61-54.79,2.06s-.36-5.72,1.58-7.36S532,423.8,532,423.8l0-7Z" style="fill:#fff"></path><path d="M528.85,423.81c3.4-.56,7.54.05,10.08,2.52.09.1,0,.24-.15.2a47.46,47.46,0,0,0-9.92-2.29A.22.22,0,0,1,528.85,423.81Z" style="fill:#263238"></path><path d="M526.38,425.24c3.4-.56,7.53,0,10.07,2.51.1.1,0,.24-.15.2a48.1,48.1,0,0,0-9.92-2.29A.21.21,0,0,1,526.38,425.24Z" style="fill:#263238"></path><path d="M523.9,426.66c3.4-.56,7.53,0,10.07,2.52.1.09,0,.23-.15.19a47.44,47.44,0,0,0-9.92-2.28A.22.22,0,0,1,523.9,426.66Z" style="fill:#263238"></path><path d="M509.12,442c1.8.55,52.88-.77,54.79-2.06.74-.48,1-7.93,1-17v-.28l-33,.49,0,.56s-19.32,9.25-21.28,10.89S507.32,441.49,509.12,442Z" style="fill:#232745"></path><path d="M509.65,440c8.6-.43,43.35-1.38,51.89-1.15.07,0,.07.05,0,.05-8.52.62-43.27,1.28-51.89,1.24C509.47,440.18,509.47,440.05,509.65,440Z" style="fill:#263238"></path><path d="M571.25,282.66s-5.63,55.28-5.72,56.59c0,.51.83,74.23.83,74.23l-35,.12s-.3-68.16.27-76c.07-.91,3.46-58.54,14.3-90.36h41.39s-.36,18.7-8.86,32.21A72.19,72.19,0,0,0,571.25,282.66Z" style="fill:#37474f"></path><path d="M540.55,345.44c.16-10.23.58-20.44,1.39-30.63s2-20.13,3.69-30.12a248.76,248.76,0,0,1,6.57-29.78c.37-1.23.73-2.45,1.11-3.67a.13.13,0,0,1,.25.08c-2.63,9.79-4.91,19.67-6.63,29.66s-2.86,20.18-3.72,30.33-1.35,20.39-1.61,30.61-.28,20.4-.18,30.6.5,14.17.53,24.36c0,1.28,0,2.55,0,3.83a.07.07,0,0,1-.14,0c-.18-5.12-.5-10.23-.66-15.35s-.32-4-.44-9.16C540.51,366,540.39,355.69,540.55,345.44Z" style="fill:#455a64"></path><path d="M565.72,285.2c2-1.11,4.12-2.11,6.25-3s4.32-1.73,6.45-2.69c.08,0,.15.09.07.13-2.09,1.08-4.14,2.23-6.26,3.25a49.84,49.84,0,0,1-6.41,2.57A.13.13,0,0,1,565.72,285.2Z" style="fill:#455a64"></path><path d="M568.3,307.25c.51-5.22,1.07-10.43,1.71-15.63.18-1.46.38-2.93.57-4.4a33.13,33.13,0,0,1,.69-4.2.07.07,0,0,1,.13,0,33.27,33.27,0,0,1-.26,4l-.36,3.77c-.25,2.59-.48,5.17-.74,7.76-.53,5.17-1,10.36-1.52,15.53-.3,2.94-.57,5.89-1,8.82,0,.21-.35.22-.35,0C567.28,317.67,567.78,312.44,568.3,307.25Z" style="fill:#455a64"></path><path d="M532.76,404.69a80.78,80.78,0,0,1,8.09-.14q4,0,7.94.08c5.34.08,10.73,0,16.05.48a.1.1,0,0,1,0,.2c-5.37.44-10.81.32-16.19.27q-4,0-8.1-.19a70.31,70.31,0,0,1-7.82-.5C532.61,404.87,532.65,404.7,532.76,404.69Z" style="fill:#455a64"></path><path d="M568.63,208.39c-3.76,4.92-18.87,18.34-28.58,17.21-8.71-1-23.12-27.37-25.52-38.72-.85-4,16.72-1.78,19.69.41,2.55,1.88,10.14,19.38,11.41,19.38,2.13,0,7.94-2.16,17.3-5.42C571.73,198.19,571.28,204.93,568.63,208.39Z" style="fill:#d3766a"></path><path d="M537.45,190.37l-23,.73s13,33.28,25.48,35.32c2.87.47,18-4.07,28.2-16.34,3.15-3.8,6.36-13-6.6-8.72s-15.5,4.7-15.87,4.52S537.45,190.37,537.45,190.37Z" style="fill:#c7c7c7"></path><path d="M517.44,195.57c1.78-.3,3.62-.35,5.42-.47s3.56-.23,5.34-.33c3.59-.19,7.2-.47,10.79-.43a.07.07,0,0,1,0,.13c-3.59.55-7.24.73-10.86.95-1.81.11-3.63.19-5.45.26a46.31,46.31,0,0,1-5.27,0C517.35,195.71,517.36,195.59,517.44,195.57Z" style="fill:#263238"></path><rect x="482.71" y="184.67" width="72.45" height="55.58" transform="translate(1037.88 424.93) rotate(180)" style="fill:#232745"></rect><path d="M489.93,196.83a6.58,6.58,0,1,0,5.16-5.17A6.58,6.58,0,0,0,489.93,196.83Z" style="fill:#fff;opacity:0.6000000000000001"></path><polygon points="506.62 228.28 555.16 228.28 530.89 198.37 506.62 228.28" style="fill:#232745"></polygon><polygon points="506.62 228.28 555.16 228.28 530.89 198.37 506.62 228.28" style="opacity:0.2"></polygon><polygon points="482.71 228.31 525.77 228.31 504.24 208.83 482.71 228.31" style="fill:#232745"></polygon><polygon points="482.71 228.31 525.77 228.31 504.24 208.83 482.71 228.31" style="opacity:0.1"></polygon><rect x="482.71" y="228.28" width="72.45" height="11.98" style="fill:#232745"></rect><rect x="482.71" y="228.28" width="72.45" height="11.98" style="opacity:0.1"></rect><path d="M543,188c-2.86-2.22-6-6.93-8.55-7.82a3.08,3.08,0,0,0-3.56,1s-.73-2.9-3.17-3.33c-1.26-.22-2.72,1.6-2.72,1.6a3.7,3.7,0,0,0-2.88-2.55c-1.75-.19-3,1.66-3,1.66s-1.68-1.9-3.53-1.53c-3.75.75-7,15.53-2.08,19,2.3,1.63,2.91-2,2.91-2s.4,5.46,3.43,6.21,3.52-4,3.52-4,.44,5.29,3.66,5.75,3-4.39,3-4.39,1.51,3.77,4,3.56c4.2-.35.63-7.66,2.12-10.74l5.75-.61Z" style="fill:#d3766a"></path><path d="M539,184.05c2.9,1.87,7.67-1.18,10.7.21,4.1,1.88-1.19,5.8-7.68,5.49l-5-1.12Z" style="fill:#d3766a"></path><path d="M518.94,178.82a0,0,0,0,0-.08,0,26.26,26.26,0,0,0-2.45,15.42c0,.17.31.19.31,0A53.54,53.54,0,0,1,518.94,178.82Z" style="fill:#263238"></path><path d="M525,179.37a.06.06,0,0,0-.11,0,24.57,24.57,0,0,0-1.63,17c.06.2.31.31.26.08C522.67,192.51,523.53,184,525,179.37Z" style="fill:#263238"></path><path d="M530.36,197.92c-1.42-5.57-.91-11,.42-16.55,0-.07-.08-.09-.11,0-1.39,2.52-1.87,6.14-2,9a15.18,15.18,0,0,0,1.5,7.65C530.21,198.06,530.39,198,530.36,197.92Z" style="fill:#263238"></path><path d="M559.55,206.17c2.2.43,7.41-3,9.73-6.23.16-.22.1-2.76.19-5.84,0-1.88.16-4,.39-5.86.06-.38-1.36.17-1.36.17l-2.52.28-8.36,1a30.26,30.26,0,0,1,.25,7.41,4.34,4.34,0,0,1-.18.77l0,.13C557.23,199.41,556.11,205.49,559.55,206.17Z" style="fill:#d3766a"></path><path d="M557.69,197.84l0,.13a6.75,6.75,0,0,0,1.21.21c8,.82,10.29-9.23,10.29-9.23l-3.18-.26-8.36,1a30.26,30.26,0,0,1,.25,7.41A4.34,4.34,0,0,1,557.69,197.84Z" style="fill:#263238"></path><path d="M572.07,172.21c1.29,4.25-1,16.51-4,19.24-4.39,4-11.56,4.31-14.91-1-3.26-5.11,0-21,3.37-23.51C561.5,163.33,570.17,165.94,572.07,172.21Z" style="fill:#d3766a"></path><path d="M559.39,179.26s.06.06.05.09c-.21.81-.32,1.78.36,2.22,0,0,0,.06,0,.05C558.91,181.28,559.06,180,559.39,179.26Z" style="fill:#263238"></path><path d="M560.32,178.57c1.34.2.84,2.87-.4,2.68S559.19,178.41,560.32,178.57Z" style="fill:#263238"></path><path d="M555,178.31s-.07,0-.07.06c-.13.83-.41,1.76-1.21,1.89,0,0,0,.05,0,.05C554.67,180.35,555,179.11,555,178.31Z" style="fill:#263238"></path><path d="M554.45,177.31c-1.31-.35-1.91,2.3-.7,2.62S555.54,177.6,554.45,177.31Z" style="fill:#263238"></path><path d="M561.59,177.55c-.34-.16-.64-.36-1-.55a1.82,1.82,0,0,1-.88-.76.57.57,0,0,1,.22-.66,1.42,1.42,0,0,1,1.43.11,2.09,2.09,0,0,1,1,1.11A.61.61,0,0,1,561.59,177.55Z" style="fill:#263238"></path><path d="M553.71,176.1a10.36,10.36,0,0,0,1.11-.08,1.82,1.82,0,0,0,1.12-.3A.56.56,0,0,0,556,175a1.41,1.41,0,0,0-1.34-.52,2.07,2.07,0,0,0-1.4.55A.62.62,0,0,0,553.71,176.1Z" style="fill:#263238"></path><path d="M559.22,187.18c-.23.16-.48.39-.78.36a2.23,2.23,0,0,1-.85-.37s-.06,0-.05,0a1.15,1.15,0,0,0,1,.65.89.89,0,0,0,.78-.61C559.32,187.19,559.26,187.16,559.22,187.18Z" style="fill:#263238"></path><path d="M558.81,184.55a2.88,2.88,0,0,1-2.11.91,3.6,3.6,0,0,1-1-.15l-.19-.05-.17-.06a.22.22,0,0,1-.13-.22h0a.24.24,0,0,1,0-.08h0l0-.07c.1-.64.34-1.59.34-1.59-.26.07-1.54.38-1.46.06a42.36,42.36,0,0,1,2.67-8.31.07.07,0,0,1,.14.05c-.54,2.64-1.54,5.16-2.13,7.8a5,5,0,0,1,1.4-.15c.09,0-.5,1.84-.52,2.13v0a4,4,0,0,0,3.08-.37C558.82,184.43,558.87,184.49,558.81,184.55Z" style="fill:#263238"></path><path d="M556.12,185.06a3.32,3.32,0,0,0,1.14,1.28,1.48,1.48,0,0,0,.9.23c.69,0,.82-.65.8-1.19a3.62,3.62,0,0,0-.15-.85A4.4,4.4,0,0,1,556.12,185.06Z" style="fill:#263238"></path><path d="M557.26,186.34a1.48,1.48,0,0,0,.9.23c.69,0,.82-.65.8-1.19A1.58,1.58,0,0,0,557.26,186.34Z" style="fill:#ff9bbc"></path><path d="M571.48,184c-2.23-.91-2.55-8.77-2.55-8.77s-.34,3.28-.95,3.14-2.63-4.88-2.56-8.11a25.13,25.13,0,0,1-6.16,2.21c-3,.55-6.22,0-6.17-.5.17-1.48,1.94-5.19,4.1-6.33a10.49,10.49,0,0,1,10.52-.13,10.13,10.13,0,0,1,5.92,8C574.08,176,572.3,184.32,571.48,184Z" style="fill:#263238"></path><path d="M560,184a4,4,0,0,1-2.67-4.9h0a3.95,3.95,0,1,1,3.64,5.06A3.64,3.64,0,0,1,560,184Zm-2.16-4.75a3.42,3.42,0,1,0,4.25-2.31,4.1,4.1,0,0,0-.84-.14A3.43,3.43,0,0,0,557.79,179.24Z" style="fill:#232745"></path><path d="M551.72,182.69c-1.6-.25-2.63-2.21-2.29-4.36a4.69,4.69,0,0,1,1.25-2.59,2.45,2.45,0,0,1,4.15.65,4.67,4.67,0,0,1,.4,2.85c-.31,2-1.74,3.53-3.25,3.47Zm-.67-6.58a4.15,4.15,0,0,0-1.1,2.31c-.29,1.86.54,3.54,1.85,3.74s2.62-1.14,2.91-3a4.17,4.17,0,0,0-.34-2.53,2.13,2.13,0,0,0-1.51-1.22l-.2,0A2.18,2.18,0,0,0,551.05,176.11Z" style="fill:#232745"></path><path d="M557.34,179.56l.4-.34c-.51-.59-1.77-1.47-2.89-.6l.33.41C556.17,178.25,557.3,179.51,557.34,179.56Z" style="fill:#232745"></path><path d="M574.56,183.28l.5-.17c-.08-.23-.8-2.29-1.93-2.66s-8.15-.78-8.45-.8l0,.53c2,.12,7.5.5,8.32.77S574.37,182.71,574.56,183.28Z" style="fill:#232745"></path><path d="M569.43,182.2s2.86-3.9,4.63-2.87-.43,6.73-2.56,7.47a2.16,2.16,0,0,1-2.86-1.22Z" style="fill:#d3766a"></path><path d="M573.39,181a0,0,0,0,1,0,.05,5.41,5.41,0,0,0-2.88,3.34,1.18,1.18,0,0,1,1.78-.29s0,.09,0,.08a1.33,1.33,0,0,0-1.47.43,6.06,6.06,0,0,0-.72,1.16c-.07.13-.31.06-.26-.1v0C569.83,183.7,571.36,181.09,573.39,181Z" style="fill:#263238"></path><path d="M559.83,164.86a18.28,18.28,0,0,1,5-1.49c1.95-.24,8.07.24,9.54,1.47s1.85,7,1.89,7.84-.34,5.95-2.19,7.18-2-7.44-4.94-10.32S559.83,164.86,559.83,164.86Z" style="fill:#232745"></path><path d="M559.83,164.87s6.4,1.79,9.31,4.67,3.09,11.55,4.94,10.32a4.09,4.09,0,0,0,1.55-2.71c-.39-2.53-1.41-6.46-3.52-9.18-2-2.55-5.38-3.85-9-4.26A19.35,19.35,0,0,0,559.83,164.87Z" style="opacity:0.1"></path><path d="M573.57,185c-.17-2.31-2.51-8.49-5-12s-9.7-5.62-10.72-5.56c-2.46.13-3.29.88-3.68.66s2.14-2.07,2.84-2.48a9.23,9.23,0,0,1,3.62-1.36c1.07,0,7.66.68,10.05,3.49s5.78,10.69,5.16,12.71c-.15.48-.8.8-1,1.48-.27.9-.46,1.94-.74,2.57S573.58,185.2,573.57,185Z" style="fill:#232745"></path><path d="M568,171.37a11.51,11.51,0,0,0,1.6-1.17,8.6,8.6,0,0,0,1.37-1.46,0,0,0,0,1,.07,0,6.61,6.61,0,0,1-1.25,1.63,5.48,5.48,0,0,1-1.73,1.08A.07.07,0,0,1,568,171.37Z" style="fill:#263238"></path><path d="M573.59,182.69c.07-.16.18-.31.26-.47a2.78,2.78,0,0,0,.21-.57,6.07,6.07,0,0,1,.26-1.12,4.68,4.68,0,0,1,.55-.77,1.57,1.57,0,0,0,.45-.94,0,0,0,0,1,.08,0,3.93,3.93,0,0,1-.78,1.79,7.82,7.82,0,0,0-.31,1.2,1.85,1.85,0,0,1-.61,1C573.65,182.8,573.57,182.75,573.59,182.69Z" style="fill:#263238"></path><path d="M572.8,180.2c.22-.27.45-.5.65-.79a6.59,6.59,0,0,0,.49-.86c.15-.29.27-.6.41-.89s.38-.68.52-1c0-.05.09,0,.07,0-.15.37-.24.76-.38,1.14a8.1,8.1,0,0,1-.45.94,4.92,4.92,0,0,1-.54.83,2.37,2.37,0,0,1-.75.66S572.78,180.22,572.8,180.2Z" style="fill:#263238"></path><path d="M572,177.94a6.55,6.55,0,0,0,1.26-1.42c.33-.52.64-1.06.94-1.6,0,0,.08,0,.07,0a7.56,7.56,0,0,1-.8,1.76,4.1,4.1,0,0,1-.59.73,4.7,4.7,0,0,1-.83.57S571.92,178,572,177.94Z" style="fill:#263238"></path><path d="M571.05,175.78a2.4,2.4,0,0,0,.61-.62c.2-.26.39-.52.58-.79l.54-.77a2.23,2.23,0,0,0,.41-.85,0,0,0,0,1,.08,0,2.24,2.24,0,0,1-.27.9,6.19,6.19,0,0,1-.52.9,8.3,8.3,0,0,1-.64.8,1.53,1.53,0,0,1-.75.51A0,0,0,0,1,571.05,175.78Z" style="fill:#263238"></path><path d="M570.39,173c.21-.21.43-.42.62-.64s.38-.46.57-.7.38-.5.56-.76a0,0,0,0,1,.06,0,5.49,5.49,0,0,1-.42.84,8.12,8.12,0,0,1-.56.75,6.65,6.65,0,0,1-.64.66,2.16,2.16,0,0,1-.75.52,0,0,0,0,1-.06-.07A4.67,4.67,0,0,1,570.39,173Z" style="fill:#263238"></path><path d="M566.26,170.05c.23-.28.45-.56.71-.82s.53-.51.82-.75a10.18,10.18,0,0,1,1.79-1.2s.09,0,0,.06c-1.09.93-2.23,1.82-3.31,2.77A0,0,0,0,1,566.26,170.05Z" style="fill:#263238"></path><path d="M564.87,168.08a4.62,4.62,0,0,1,.78-.75,10.64,10.64,0,0,1,2-1.1s.09,0,0,.07c-.6.4-1.2.78-1.78,1.22a8.86,8.86,0,0,0-.82.67c-.26.25-.46.54-.71.79,0,0-.06,0-.05,0A2.54,2.54,0,0,1,564.87,168.08Z" style="fill:#263238"></path><path d="M563,167.17a4.58,4.58,0,0,1,.72-.74,5.53,5.53,0,0,1,1.69-1s.07.05,0,.07a10.54,10.54,0,0,0-1.59,1.15l-.73.67c-.24.22-.44.5-.7.7,0,0,0,0,0,0A5,5,0,0,1,563,167.17Z" style="fill:#263238"></path><path d="M561.56,166c.24-.2.49-.38.75-.57a3,3,0,0,1,.8-.45s.06.05,0,.07c-.47.38-.94.76-1.4,1.15a7.78,7.78,0,0,0-1.09,1.27s0,0,0,0A3,3,0,0,1,561.56,166Z" style="fill:#263238"></path><path d="M559.82,165.64a5.17,5.17,0,0,1,1.55-1s.07,0,0,.07a5.86,5.86,0,0,0-1.41,1.06,8.58,8.58,0,0,0-1.1,1.37s-.06,0,0,0A4,4,0,0,1,559.82,165.64Z" style="fill:#263238"></path><path d="M557.55,166.68c.06-.13.13-.24.2-.36a4.38,4.38,0,0,1,.52-.62,7.62,7.62,0,0,1,1.31-1s.08,0,0,.06a7.21,7.21,0,0,0-1.23,1,7.37,7.37,0,0,0-.5.61c-.07.11-.14.22-.2.33a1.77,1.77,0,0,1-.19.33,0,0,0,0,1-.07,0A1,1,0,0,1,557.55,166.68Z" style="fill:#263238"></path><path d="M556.16,166.8a5.15,5.15,0,0,1,.43-.52,5.22,5.22,0,0,1,.48-.46l.52-.44s.09,0,0,.06a3.7,3.7,0,0,0-.49.48l-.43.48-.44.49c-.14.16-.27.35-.43.5a0,0,0,0,1-.05,0A3.48,3.48,0,0,1,556.16,166.8Z" style="fill:#263238"></path><path d="M594.28,264.4c-.12.14-53.16,1.16-53.65.62-.68-.75,8-53.91,16.41-65.5,2.11-2.9,9.63-4.88,12.76-1.94,9.08,8.52,11,15.68,13.35,21.53a174.07,174.07,0,0,1,5.78,19.32C592.09,250.92,594.7,263.9,594.28,264.4Z" style="fill:#c7c7c7"></path><path d="M564.27,206.61c-.84,7.35-7.32,35.53-16.22,39.58-10.79,4.91-25.48,7.56-33.18,7.81-4.08.14-.56-22.15,3.13-22.13,5.82,0,16.29-2.47,18.36-3s12.29-16.73,18.2-25.22C559.88,196,564.76,202.27,564.27,206.61Z" style="fill:#d3766a"></path><path d="M519.62,253.49c-8.14.85-18.23,2.39-26.63-1.45a4.56,4.56,0,0,1-2.22-2c-3.79-1.65-4.15-3.94-4.15-3.94-3.07-2.63-3.11-5-3.11-5s-4.44-2-3.68-4.87c.84-3.23,6.91.2,11.39,0,10.29-.35,26.32-3.79,29.28-4.19Z" style="fill:#d3766a"></path><path d="M502.25,243.43a67.85,67.85,0,0,1-9-.2A65.93,65.93,0,0,1,483.6,241a.08.08,0,0,0-.06.15,35,35,0,0,0,18.71,2.42C502.39,243.54,502.4,243.43,502.25,243.43Z" style="fill:#263238"></path><path d="M503.36,249.6c-2.95-.12-8.13-.36-16.72-3.62,0,0-.06,0,0,.05a31.33,31.33,0,0,0,16.74,3.71C503.54,249.74,503.56,249.61,503.36,249.6Z" style="fill:#263238"></path><path d="M503.9,252.93A49.12,49.12,0,0,1,490.78,250s0,0,0,.05c5.49,2.48,7.76,2.75,13.15,3.06C504.09,253.12,504.09,253,503.9,252.93Z" style="fill:#263238"></path><path d="M503.59,235c1.32-.57,1-1.27-1.45-1.92s-12.84-1.1-12.38-4.7,14.9-2.07,19.12-1.36a29.34,29.34,0,0,1,12.2,5.34C518.2,232.8,509.22,234.17,503.59,235Z" style="fill:#d3766a"></path><path d="M522.27,230.53l-.58,23.6S543,251.68,549.91,246s12.27-24.82,14.2-35.63-3.26-17.63-12.67-3.15-14.3,20.46-15.14,21S522.27,230.53,522.27,230.53Z" style="fill:#c7c7c7"></path><path d="M542.78,249.41c.07-.12,8.16-4.1,9.71-6.67,1.21-2,7.5-15.66,11.43-30.67,0,0,.08,0,.07,0a72.42,72.42,0,0,1-1.58,7.27l.21-.35a34.62,34.62,0,0,0,1.75-3.07c0-.08.15,0,.11.07-.53,1-1,2.12-1.46,3.17-.25.51-.49,1-.78,1.51-.1.18-.22.38-.34.57-.21.74-.42,1.48-.65,2.22-.56,1.86-5.89,16.67-8.67,20.2-1.76,2.22-9,5.7-9.82,5.86C542.67,249.56,542.73,249.49,542.78,249.41Z" style="fill:#263238"></path><path d="M526.21,252.64a52.12,52.12,0,0,1-.06-5.45q0-2.67.09-5.34c.08-3.59.08-7.22.39-10.8,0-.08.13-.09.13,0,.28,3.61.18,7.27.12,10.9,0,1.81-.09,3.63-.17,5.44a44,44,0,0,1-.37,5.26C526.33,252.74,526.21,252.71,526.21,252.64Z" style="fill:#263238"></path><path d="M559.3,197.68c4.2-2.26,15.76-3.25,20.41-.12,5.88,3.94,11.29,26.79,8.89,28.14-4.27,2.41-19.08-10.86-22.31-16.31S559.3,197.68,559.3,197.68Z" style="fill:#c7c7c7"></path><path d="M562.29,204.51c.75.79,1.53,1.57,2.28,2.37-1-1.58-2-3.15-3-4.76,0-.06,0-.12.09-.07a59.62,59.62,0,0,1,3.67,5.12c1.22,1.76,2.44,3.52,3.75,5.22a43.78,43.78,0,0,0,4.2,4.83,44.44,44.44,0,0,0,5.23,4.24c1,.74,2.08,1.46,3.14,2.15a25.83,25.83,0,0,0,3.59,1.95c.23.09.08.16,0,.14a18.83,18.83,0,0,1-3.07-1.47c-1-.58-2-1.17-3.05-1.77a39.82,39.82,0,0,1-5.53-3.84,40.63,40.63,0,0,1-8.1-10.2l-.14-.21c-.45-.48-.88-1-1.3-1.49-.61-.73-1.24-1.43-1.91-2.12C562.13,204.54,562.23,204.45,562.29,204.51Z" style="fill:#263238"></path></g></svg>